<?xml version="1.0" standalone="no"?>
<!DOCTYPE svg PUBLIC "-//W3C//DTD SVG 20010904//EN"
 "http://www.w3.org/TR/2001/REC-SVG-20010904/DTD/svg10.dtd">
<svg version="1.0" xmlns="http://www.w3.org/2000/svg"
 width="1792.000000pt" height="1024.000000pt" viewBox="0 0 1792.000000 1024.000000"
 preserveAspectRatio="xMidYMid meet">

<g transform="translate(0.000000,1024.000000) scale(0.100000,-0.100000)"
fill="#000000" stroke="none">
<path d="M0 5120 l0 -5120 8960 0 8960 0 0 3454 0 3455 -27 4 -28 4 28 2 27 1
0 1660 0 1660 -1075 0 -1074 0 -3 -457 c-2 -252 -2 -745 0 -1097 3 -636 3
-638 23 -643 19 -5 21 -12 16 -49 -6 -60 -21 -74 -74 -74 l-44 0 3 48 c3 48
22 58 25 12 0 -14 2 -31 2 -37 1 -7 12 -13 26 -13 21 0 25 5 25 28 0 60 -9 72
-52 72 -34 0 -39 2 -28 14 6 8 21 16 32 18 20 3 20 6 19 823 0 465 4 891 10
985 6 91 7 211 4 268 l-7 102 -1141 0 -1140 0 6 -167 c4 -91 7 -586 7 -1100 0
-926 0 -933 20 -933 18 0 20 -7 20 -60 0 -55 2 -60 22 -60 12 0 19 -2 17 -4
-2 -2 -53 -6 -114 -9 -107 -6 -108 -5 -45 6 l65 12 -3 37 c-2 20 1 39 7 43 7
4 11 -10 11 -39 0 -25 5 -46 10 -46 6 0 10 22 10 49 0 47 -2 50 -30 56 -41 9
-50 0 -50 -51 0 -28 -4 -43 -10 -39 -5 3 -10 28 -10 55 0 43 3 49 23 52 l22 3
5 410 c5 400 6 933 2 1503 l-2 282 -5607 0 -5608 0 2 -1007 c1 -555 2 -1047 3
-1095 0 -70 3 -88 14 -88 8 0 17 -4 21 -9 10 -16 13 -91 4 -91 -5 0 -9 9 -9
19 0 33 -11 51 -31 51 -16 0 -19 -8 -19 -55 l0 -55 68 -1 c37 0 75 -4 85 -8
10 -4 -28 -5 -85 -3 -57 2 -105 6 -108 9 -3 2 -6 34 -7 70 -2 57 0 66 17 70
19 5 20 15 20 222 1 722 1 1800 1 1879 l-1 92 -1105 0 -1105 0 0 -5120z m4462
3807 l3 -979 29 -25 c29 -25 29 -25 5 -23 -13 1 -26 1 -29 0 -3 -1 -15 -3 -27
-4 -27 -3 -28 4 -12 174 6 69 11 491 11 1060 1 526 5 907 9 860 5 -47 9 -525
11 -1063z m2051 1038 l27 0 1 -115 c2 -140 -2 -314 -6 -318 -2 -2 -22 -6 -44
-9 -39 -5 -41 -4 -41 20 0 30 -15 44 -27 23 -11 -21 -63 -46 -95 -46 -30 0
-83 40 -102 79 -23 46 -28 107 -10 151 21 53 76 100 115 100 31 0 89 -28 89
-42 0 -4 4 -8 9 -8 5 0 6 41 3 91 l-5 90 29 -8 c16 -4 41 -8 57 -8z m827 -207
c0 -113 -3 -213 -6 -222 -4 -11 -19 -16 -50 -16 l-44 0 0 194 c0 106 -3 207
-6 225 l-6 31 56 -3 56 -2 0 -207z m778 92 c-2 -66 -1 -120 3 -120 3 0 30 25
60 55 50 52 56 55 102 55 l49 0 -51 -61 c-28 -33 -51 -68 -51 -77 0 -10 24
-52 54 -94 30 -42 52 -79 49 -82 -4 -3 -28 -6 -54 -6 -45 0 -50 3 -65 33 -24
48 -55 77 -80 77 -21 0 -22 -3 -17 -55 l6 -55 -52 0 -51 0 0 225 0 225 51 0
51 0 -4 -120z m712 83 c0 -77 -6 -83 -69 -80 l-56 2 0 -165 0 -165 -47 -3 -48
-3 0 170 0 171 -70 0 -70 0 0 50 0 50 168 3 c92 1 173 4 180 5 8 1 12 -11 12
-35z m1389 4 c78 -52 116 -149 97 -250 -8 -45 -79 -125 -131 -148 -74 -34
-162 -20 -225 37 -52 47 -70 90 -70 164 0 105 68 197 162 221 52 13 127 2 167
-24z m1699 -14 l3 -43 -50 0 -51 0 0 46 0 45 48 -3 47 -3 3 -42z m-6153 15
c69 -37 96 -96 78 -168 -7 -26 -19 -40 -46 -55 -20 -11 -37 -22 -37 -25 0 -3
25 -35 55 -70 30 -36 55 -71 55 -77 0 -9 -19 -13 -62 -13 l-63 0 -30 57 c-32
61 -70 91 -100 79 -15 -6 -17 -15 -11 -71 l7 -65 -55 0 -55 0 1 214 0 214 117
-2 c84 -2 124 -6 146 -18z m1356 -6 c20 -12 44 -37 54 -56 16 -30 17 -38 5
-66 -7 -17 -24 -38 -37 -47 -29 -20 -29 -31 1 -39 37 -9 58 -38 58 -81 0 -31
-6 -43 -38 -71 -48 -41 -85 -50 -216 -51 l-108 -1 0 82 c-1 46 -3 145 -6 222
l-6 138 129 -4 c111 -3 133 -7 164 -26z m4610 -29 c5 -13 9 -36 9 -50 0 -25 1
-25 19 -9 17 15 19 15 25 1 3 -9 6 -32 6 -51 0 -31 -2 -34 -30 -34 l-31 0 3
-72 c3 -72 4 -73 31 -76 26 -3 28 -6 25 -45 -3 -40 -5 -42 -37 -45 -46 -5 -89
15 -106 49 -10 18 -15 58 -15 109 0 79 0 80 -25 80 -22 0 -25 4 -25 39 0 49
24 78 48 59 13 -11 14 -10 9 12 -3 14 -8 34 -12 45 -6 18 -2 20 45 16 44 -2
53 -7 61 -28z m-2681 -98 c0 -54 -1 -55 -29 -55 -15 0 -40 -9 -55 -21 -25 -19
-26 -25 -26 -115 l0 -94 -51 0 -52 0 7 77 c3 42 6 114 6 160 l0 83 43 0 c43 0
43 -1 39 -30 -5 -32 14 -43 25 -15 5 16 71 65 85 65 5 0 8 -25 8 -55z m2200 0
c0 -53 -1 -55 -28 -55 -15 0 -38 -7 -50 -16 -20 -14 -22 -23 -22 -108 0 -104
-5 -112 -64 -101 l-31 6 1 87 c1 48 2 120 3 160 1 72 1 72 29 72 36 0 56 -14
49 -34 -12 -31 14 -26 47 8 50 53 66 48 66 -19z m-5154 26 c50 -30 84 -82 84
-127 l0 -39 -102 -3 c-57 -2 -104 -5 -106 -7 -7 -7 19 -45 39 -55 15 -9 26 -8
42 3 39 25 122 -1 102 -33 -12 -20 -84 -50 -120 -50 -81 0 -165 83 -165 163 0
116 135 204 226 148z m1519 -12 c60 -41 68 -71 53 -197 -13 -104 -14 -107 -40
-110 -20 -2 -31 4 -43 22 l-17 25 -36 -24 c-49 -34 -77 -32 -117 8 -40 40 -53
80 -34 104 29 35 103 73 141 73 31 0 38 4 38 19 0 24 -54 45 -80 31 -24 -13
-67 -13 -75 0 -10 16 12 46 47 64 45 23 117 16 163 -15z m282 20 c15 -6 43
-22 61 -36 l34 -25 -29 -19 c-30 -20 -63 -25 -63 -9 0 6 -13 10 -30 10 -76 0
-99 -109 -30 -145 25 -13 30 -13 53 5 23 18 27 19 61 5 31 -13 35 -18 26 -34
-16 -32 -69 -70 -104 -76 -77 -15 -176 89 -176 183 0 28 39 93 73 120 33 28
84 36 124 21z m1389 -8 c48 -29 87 -86 88 -128 1 -41 16 -37 -143 -41 l-73 -2
14 -22 c9 -13 27 -30 41 -38 23 -13 28 -13 47 5 19 18 22 18 55 2 19 -9 35
-23 35 -31 0 -8 -25 -27 -55 -41 -49 -24 -58 -26 -90 -15 -44 14 -100 62 -121
101 -24 47 -18 101 19 155 17 27 43 54 57 61 36 18 90 16 126 -6z m341 -1 c32
-19 93 -111 93 -141 0 -20 -45 -29 -142 -29 -37 0 -70 -4 -73 -10 -9 -15 41
-60 68 -60 14 0 30 7 37 15 26 32 81 -1 67 -39 -10 -26 -92 -59 -127 -51 -41
9 -106 59 -126 97 -9 17 -16 54 -16 80 0 40 6 57 29 85 56 70 129 90 190 53z
m833 -2 c-4 -40 -1 -41 29 -9 76 81 201 -5 201 -139 0 -41 -6 -61 -30 -96 -17
-24 -39 -48 -50 -54 -32 -17 -74 -11 -110 15 -19 14 -35 25 -36 25 -2 0 -2
-33 -1 -72 l2 -73 -55 0 c-49 0 -55 2 -53 20 1 11 5 107 9 213 l7 192 44 0
c40 0 44 -2 43 -22z m458 11 c36 -12 112 -117 112 -153 0 -20 -5 -21 -102 -24
-56 -1 -106 -6 -112 -12 -13 -13 31 -60 57 -60 11 0 28 7 37 15 13 12 22 13
48 3 39 -15 40 -30 6 -57 -60 -47 -158 -31 -213 36 -63 77 -39 188 53 244 35
22 69 24 114 8z m595 -37 l41 -42 7 -112 c3 -62 4 -116 2 -120 -2 -5 -19 -8
-38 -8 -25 0 -35 5 -40 20 -8 25 -13 25 -45 0 -78 -61 -199 23 -164 115 11 27
102 67 145 63 43 -4 48 5 23 41 -14 19 -22 22 -53 17 -119 -21 -125 -20 -100
25 17 32 67 50 127 46 47 -3 58 -9 95 -45z m657 38 c28 0 86 -55 110 -105 18
-37 20 -50 11 -82 -13 -46 -62 -100 -108 -120 -84 -35 -194 28 -224 127 -15
48 -3 81 47 133 34 35 100 60 132 51 8 -2 22 -4 32 -4z m240 -21 l0 -30 35 27
c21 16 53 28 79 31 38 5 46 2 70 -23 36 -40 43 -73 38 -191 l-4 -103 -44 0
-44 0 0 88 c0 129 -32 170 -93 122 -26 -21 -26 -21 -20 -120 7 -110 10 -105
-59 -94 l-38 7 0 152 c0 164 0 163 53 164 24 1 27 -3 27 -30z m498 11 c45 -20
53 -42 27 -76 -14 -19 -15 -19 -54 4 -47 26 -83 28 -101 7 -18 -22 -2 -35 51
-42 53 -7 114 -36 123 -58 28 -74 -36 -155 -121 -155 -38 0 -111 26 -143 50
l-25 19 22 22 c22 22 22 22 78 5 59 -19 82 -17 92 10 8 20 -9 31 -64 39 -56 8
-103 47 -103 85 0 31 41 87 74 100 36 15 99 10 144 -10z m-986 -42 c3 -29 5
-99 7 -155 l2 -103 -51 0 -50 0 0 149 0 150 33 4 c17 2 37 5 44 5 7 1 13 -19
15 -50z m-5132 -67 c0 -5 -3 -23 -6 -40 l-6 -31 -94 0 -94 0 0 40 0 40 100 0
c55 0 100 -4 100 -9z m8179 -326 c0 -132 -4 -212 -9 -200 -12 29 -12 454 0
435 6 -9 9 -109 9 -235z m-7635 -55 c25 -38 50 -70 56 -70 5 0 26 29 47 65 25
44 43 65 56 65 17 0 16 -6 -13 -57 -18 -32 -43 -72 -56 -90 -21 -28 -23 -38
-18 -92 6 -53 5 -61 -10 -61 -11 0 -16 9 -17 28 -1 77 -7 102 -33 133 -44 52
-88 149 -67 149 5 0 30 -31 55 -70z m568 -60 c1 -71 2 -142 2 -157 2 -50 -23
-34 -101 68 -43 56 -86 111 -95 123 -17 20 -18 16 -18 -96 0 -72 -4 -118 -10
-118 -6 0 -10 57 -10 150 0 83 3 150 8 150 4 0 31 -31 60 -69 29 -37 71 -85
93 -107 l39 -38 0 112 c0 93 3 112 15 112 12 0 15 -22 17 -130z m1158 -25 c0
-97 -4 -155 -10 -155 -6 0 -30 28 -54 63 -25 34 -62 85 -83 112 -35 46 -38 48
-40 25 -1 -14 -5 -64 -8 -113 -4 -53 -11 -85 -17 -81 -11 7 -6 291 5 287 4 -2
11 -3 15 -3 8 0 43 -46 116 -155 l40 -60 7 30 c4 17 7 66 8 111 1 71 5 94 18
94 2 0 3 -70 3 -155z m1090 67 c18 -42 46 -102 62 -132 28 -52 34 -96 13 -94
-5 0 -17 20 -26 45 -9 24 -19 43 -23 42 -3 -2 -37 -3 -75 -3 l-69 0 -14 -40
c-13 -41 -35 -52 -29 -15 1 11 25 72 51 135 27 63 51 123 54 133 9 29 22 13
56 -71z m-2933 45 c36 -33 38 -55 8 -87 -21 -22 -23 -29 -11 -33 8 -3 22 -17
30 -30 13 -19 14 -30 5 -55 -16 -48 -47 -62 -134 -62 l-75 0 0 151 0 151 78
-7 c57 -5 83 -13 99 -28z m780 -99 c6 -116 1 -168 -17 -168 -6 0 -10 59 -10
152 0 182 17 193 27 16z m227 110 c9 -12 16 -28 16 -35 0 -17 -25 -16 -39 1
-7 8 -26 18 -44 22 -26 5 -35 2 -54 -20 -28 -33 -24 -42 36 -67 65 -29 101
-65 101 -105 0 -35 -33 -69 -75 -80 -28 -7 -100 29 -115 56 -14 27 5 27 45 0
38 -25 66 -25 96 -1 32 26 19 48 -51 83 -97 50 -112 81 -64 137 23 28 32 31
79 31 44 0 57 -4 69 -22z m102 -23 c3 -25 4 -54 1 -64 -4 -18 2 -20 72 -23 42
-2 79 -2 84 0 4 2 7 32 7 68 0 112 17 69 23 -61 7 -124 -2 -183 -24 -169 -6 4
-9 31 -7 68 l3 61 -82 3 -83 3 0 -71 c0 -56 -3 -70 -15 -70 -13 0 -15 13 -11
78 3 42 5 110 5 150 1 80 16 96 27 27z m395 -35 c6 -19 24 -59 40 -88 34 -60
53 -156 27 -135 -8 7 -20 31 -27 53 l-12 40 -70 0 -70 0 -20 -45 c-20 -46 -39
-59 -39 -27 0 9 28 77 62 150 l62 133 18 -23 c10 -13 23 -39 29 -58z m541 70
c51 0 69 -3 66 -12 -3 -8 -26 -14 -58 -16 l-53 -3 5 -107 c3 -59 2 -120 -2
-137 l-6 -30 -13 24 c-10 19 -12 53 -8 138 l5 113 -49 0 c-36 0 -49 4 -49 14
0 18 26 26 64 20 16 -2 60 -4 98 -4z m128 -64 l0 -63 80 0 79 0 3 65 c3 73 22
94 32 35 8 -49 8 -237 0 -257 -10 -26 -24 -18 -24 13 0 15 -3 49 -6 75 l-7 46
-78 0 -79 0 0 -69 c0 -67 -11 -98 -24 -65 -3 9 -6 71 -6 139 0 68 3 130 6 139
12 32 24 3 24 -58z m431 -44 c25 -61 48 -114 52 -118 6 -6 22 25 86 169 16 37
35 67 41 67 7 0 9 -8 4 -22 -12 -39 -115 -273 -124 -282 -10 -10 -56 86 -101
207 -32 86 -35 101 -16 95 6 -3 33 -55 58 -116z m814 101 c8 -10 28 -37 45
-60 16 -24 34 -43 39 -43 4 0 28 27 52 60 73 100 78 68 8 -49 -34 -56 -39 -71
-39 -126 0 -64 -13 -93 -25 -56 -3 11 -5 42 -4 69 2 42 -2 56 -28 88 -44 57
-87 134 -74 134 6 0 18 -8 26 -17z m337 -58 c56 -104 100 -225 81 -225 -5 0
-19 20 -30 44 l-22 44 -69 0 c-75 0 -76 -1 -102 -70 -5 -16 -14 -28 -20 -28
-19 0 -10 42 24 119 19 42 42 102 52 134 12 40 22 57 33 55 8 -2 32 -34 53
-73z m-662 -86 c0 -116 -3 -150 -12 -147 -9 3 -14 42 -16 138 -3 137 0 160 18
160 6 0 10 -54 10 -151z m231 128 c62 -42 85 -131 47 -187 -30 -46 -99 -80
-159 -80 l-47 0 -7 113 c-3 61 -4 123 -1 137 2 14 5 28 5 33 1 4 30 7 65 7 49
0 70 -5 97 -23z m6289 -1287 c0 -5 -5 -10 -11 -10 -5 0 -7 5 -4 10 3 6 8 10
11 10 2 0 4 -4 4 -10z m210 -54 c0 -2 -8 -10 -17 -17 -16 -13 -17 -12 -4 4 13
16 21 21 21 13z m-14883 -38 c-3 -8 -6 -5 -6 6 -1 11 2 17 5 13 3 -3 4 -12 1
-19z m103 -38 c0 -5 -4 -10 -10 -10 -5 0 -10 5 -10 10 0 6 5 10 10 10 6 0 10
-4 10 -10z m-106 -37 c-5 -5 -12 -12 -16 -18 -4 -6 -8 -2 -8 8 0 9 7 17 17 17
9 0 12 -3 7 -7z m13684 -10 c-10 -2 -28 -2 -40 0 -13 2 -5 4 17 4 22 1 32 -1
23 -4z m-2381 -95 c-2 -18 -4 -6 -4 27 0 33 2 48 4 33 2 -15 2 -42 0 -60z
m2923 62 c0 -5 -5 -10 -11 -10 -5 0 -7 5 -4 10 3 6 8 10 11 10 2 0 4 -4 4 -10z
m-2702 -125 c3 -3 -39 -5 -94 -5 -54 0 -94 4 -88 8 13 8 174 5 182 -3z
m-11473 -5 c-16 -4 -59 -7 -95 -7 l-65 0 60 7 c33 4 76 7 95 7 l35 1 -30 -8z
m78 3 c-7 -2 -19 -2 -25 0 -7 3 -2 5 12 5 14 0 19 -2 13 -5z m90 0 c-7 -2 -19
-2 -25 0 -7 3 -2 5 12 5 14 0 19 -2 13 -5z m11065 0 c-26 -2 -71 -2 -100 0
-29 2 -8 3 47 3 55 0 79 -1 53 -3z m2275 0 c-18 -2 -48 -2 -65 0 -18 2 -4 4
32 4 36 0 50 -2 33 -4z m217 -3 c0 -7 -146 -2 -165 5 -5 2 29 4 78 3 48 -1 87
-5 87 -8z m-11397 -7 c-29 -2 -77 -2 -105 0 -29 2 -6 3 52 3 58 0 81 -1 53 -3z
m4414 -75 c-3 -8 -6 -5 -6 6 -1 11 2 17 5 13 3 -3 4 -12 1 -19z m-62 -12 c0
-15 -4 -21 -9 -16 -5 5 -6 16 -3 24 9 22 12 20 12 -8z m1682 -22 c-9 -9 -28 6
-21 18 4 6 10 6 17 -1 6 -6 8 -13 4 -17z m-3839 -58 c-2 -10 -11 -1 -26 27
l-23 42 27 -26 c14 -15 24 -34 22 -43z m562 39 c0 -16 -6 -25 -15 -25 -9 0
-15 9 -15 25 0 16 6 25 15 25 9 0 15 -9 15 -25z m855 -5 c16 -16 26 -32 23
-35 -3 -3 -13 6 -22 20 -10 14 -27 30 -39 35 -14 6 -16 9 -6 9 8 1 28 -12 44
-29z m-2045 -5 c0 -8 -9 -15 -20 -15 -25 0 -26 17 -2 23 9 3 18 5 20 6 1 0 2
-6 2 -14z m490 -4 c-11 -22 -13 -61 -4 -86 4 -9 25 -25 48 -36 33 -15 36 -17
11 -12 -48 10 -74 32 -81 70 -7 36 8 83 26 83 7 0 8 -6 0 -19z m4390 9 c0 -5
-7 -10 -15 -10 -8 0 -15 5 -15 10 0 6 7 10 15 10 8 0 15 -4 15 -10z m-4320
-29 c13 -25 13 -34 0 -26 -16 10 -32 45 -21 45 6 0 15 -9 21 -19z m1394 -112
c41 -25 52 -24 81 6 16 15 25 19 25 10 0 -36 -12 -45 -60 -45 -42 0 -52 4 -79
35 -22 25 -31 45 -30 68 1 32 1 31 16 -11 10 -29 26 -50 47 -63z m688 50 c226
-48 394 -227 424 -450 6 -46 9 -49 35 -49 39 0 253 46 320 68 l54 19 2 67 c3
83 27 139 85 202 74 81 173 114 268 90 89 -23 136 -51 174 -104 88 -121 80
-282 -19 -385 -56 -58 -109 -86 -184 -93 -68 -8 -61 5 -82 -155 -13 -104 -10
-129 18 -129 35 0 139 -58 180 -101 52 -54 74 -114 75 -200 2 -169 -99 -286
-269 -310 -68 -10 -154 5 -215 37 -92 48 -158 156 -158 259 l0 61 -62 27 c-66
28 -224 141 -295 209 l-42 41 -53 -47 c-88 -78 -161 -108 -285 -118 -129 -10
-211 2 -300 42 -87 40 -194 143 -232 225 -32 67 -61 183 -61 243 l0 39 -82 16
-83 17 81 -5 82 -4 6 50 c16 117 77 232 164 311 127 113 295 160 454 127z
m-1782 -49 c0 -11 -4 -20 -10 -20 -5 0 -10 9 -10 20 0 11 5 20 10 20 6 0 10
-9 10 -20z m5470 0 c0 -11 -4 -20 -10 -20 -5 0 -10 9 -10 20 0 11 5 20 10 20
6 0 10 -9 10 -20z m-4676 -2 c-5 -8 -2 -9 10 -5 14 6 15 3 6 -13 -6 -11 -8
-25 -5 -30 3 -6 -1 -10 -9 -10 -20 0 -31 37 -16 55 15 18 24 20 14 3z m-526
-51 c2 -10 -3 -17 -11 -17 -16 0 -30 24 -19 34 10 10 27 1 30 -17z m-1648 -22
c75 -39 82 -166 11 -208 -38 -22 -82 -27 -113 -10 -35 17 -36 26 -2 13 44 -17
69 -11 112 26 48 41 52 65 21 119 -26 43 -46 55 -97 55 -41 0 -71 -23 -92 -70
-10 -24 -10 -24 -5 5 13 70 97 105 165 70z m2628 -21 c-4 -3 -12 5 -18 18 -12
22 -12 22 6 6 10 -10 15 -20 12 -24z m-722 11 c113 -35 190 -124 202 -237 l7
-63 78 -12 c117 -18 121 -21 18 -20 l-94 2 -9 -35 c-25 -101 -104 -185 -203
-216 l-57 -18 6 -44 c4 -27 2 -41 -4 -37 -6 3 -10 18 -10 33 0 39 -10 48 -58
56 -177 27 -289 212 -238 390 26 89 112 171 211 202 54 17 92 17 151 -1z
m-1356 -26 c0 -5 -15 -8 -32 -8 -24 1 -27 3 -10 6 12 2 22 9 22 14 0 6 5 7 10
4 6 -3 10 -10 10 -16z m35 11 c3 -5 -1 -10 -10 -10 -9 0 -13 5 -10 10 3 6 8
10 10 10 2 0 7 -4 10 -10z m702 -16 l28 -25 -28 17 c-15 9 -42 20 -60 24 l-32
8 32 1 c21 1 41 -8 60 -25z m-550 0 c-3 -3 -12 -4 -19 -1 -8 3 -5 6 6 6 11 1
17 -2 13 -5z m-260 -10 c-3 -3 -12 -4 -19 -1 -8 3 -5 6 6 6 11 1 17 -2 13 -5z
m-110 -37 c-148 -97 -153 -100 -123 -68 17 17 52 42 80 56 52 26 74 32 43 12z
m409 -48 c128 -40 262 -157 323 -285 23 -47 38 -100 49 -167 14 -90 14 -105
-2 -185 -12 -59 -30 -111 -58 -162 l-40 -75 58 -53 c123 -112 226 -178 323
-208 72 -22 75 -20 115 60 56 114 161 195 274 212 l42 6 -5 62 c-13 163 -15
220 -6 206 4 -8 11 -55 15 -105 4 -49 11 -106 16 -126 10 -35 13 -37 62 -43
60 -8 140 -45 180 -83 18 -17 34 -24 48 -20 17 4 19 3 10 -8 -8 -10 -4 -22 15
-51 40 -60 58 -135 53 -228 -5 -94 -32 -165 -91 -241 -49 -63 -93 -90 -188
-113 -241 -61 -460 115 -460 369 l0 66 -40 6 c-70 9 -217 90 -329 181 -58 47
-108 86 -111 86 -4 0 -29 -20 -55 -45 -61 -57 -170 -112 -250 -127 l-61 -12 4
-71 c8 -119 12 -129 63 -137 109 -19 208 -98 258 -206 35 -75 43 -205 17 -283
-15 -43 -15 -53 -4 -60 16 -10 78 -29 97 -29 6 0 12 -4 12 -8 0 -13 -60 -3
-96 15 l-31 16 -44 -48 c-24 -26 -48 -53 -52 -61 -21 -37 -130 -68 -231 -65
-132 4 -234 66 -294 178 -81 153 -60 331 54 449 49 49 132 93 196 101 l40 6
-6 56 c-4 31 -9 77 -12 102 l-6 46 -65 7 c-253 26 -436 200 -479 456 -24 142
-1 260 73 384 76 125 227 232 359 256 66 12 186 2 260 -21z m3060 -36 c-10
-10 -19 5 -10 18 6 11 8 11 12 0 2 -7 1 -15 -2 -18z m-2821 -3 c10 -11 16 -20
13 -20 -3 0 -13 9 -23 20 -10 11 -16 20 -13 20 3 0 13 -9 23 -20z m475 -23
c-1 -21 -1 -21 -15 -3 -8 10 -12 23 -9 28 9 14 24 -2 24 -25z m-2503 -74 c-11
-10 -26 8 -20 23 5 15 7 14 15 -1 6 -9 7 -19 5 -22z m1153 7 c-6 -11 -15 -20
-20 -20 -16 0 -11 18 8 29 24 14 24 14 12 -9z m976 -21 c19 -22 19 -22 -3 -10
-13 6 -23 16 -23 21 0 15 5 12 26 -11z m5247 -26 c-13 -2 -33 -2 -45 0 -13 2
-3 4 22 4 25 0 35 -2 23 -4z m1547 -3 c0 -5 -4 -10 -10 -10 -5 0 -10 5 -10 10
0 6 5 10 10 10 6 0 10 -4 10 -10z m-1493 -6 c-3 -3 -12 -4 -19 -1 -8 3 -5 6 6
6 11 1 17 -2 13 -5z m-4064 -31 c-7 -2 -19 -2 -25 0 -7 3 -2 5 12 5 14 0 19
-2 13 -5z m3703 -41 c-18 -16 -19 -16 -12 1 3 10 6 24 6 30 0 8 4 7 12 -1 10
-9 8 -16 -6 -30z m-741 -6 c58 -26 105 -70 128 -119 20 -42 41 -170 33 -203
-5 -19 -3 -24 13 -24 11 0 23 -5 27 -11 4 -7 -3 -10 -19 -7 -22 2 -32 -6 -64
-52 -45 -64 -123 -116 -189 -126 l-44 -6 0 -107 c-1 -58 -7 -139 -13 -178
l-13 -73 55 -16 c110 -32 174 -77 226 -159 39 -61 49 -121 35 -208 -14 -90
-39 -142 -96 -206 -54 -60 -122 -97 -196 -107 -27 -4 -48 -9 -48 -13 -1 -47
-22 -194 -30 -212 -8 -18 -9 8 -7 99 3 85 1 125 -7 127 -6 2 -37 11 -69 21
-35 10 -74 32 -101 55 l-43 38 -48 -35 c-27 -18 -51 -32 -53 -29 -3 2 15 24
40 48 l45 43 -23 34 c-13 19 -31 57 -40 85 -9 27 -22 53 -28 57 -8 5 -7 8 2 8
7 0 12 13 12 32 0 54 30 141 64 188 47 65 127 116 215 139 72 18 75 20 89 57
8 23 16 95 19 175 l5 136 -38 7 c-59 11 -115 42 -155 87 l-36 40 -54 -31 c-30
-18 -67 -42 -83 -53 -16 -12 -26 -16 -22 -9 5 9 67 55 144 108 2 1 -4 14 -14
29 -11 16 -19 54 -22 98 -6 93 21 160 85 216 102 91 202 108 318 57z m-5262 9
c-3 -9 -8 -14 -10 -11 -3 3 -2 9 2 15 9 16 15 13 8 -4z m6426 -16 c216 -60
343 -211 396 -471 5 -27 7 -28 78 -30 l72 -2 -72 -3 -71 -4 -7 -62 c-4 -34
-18 -97 -32 -141 -14 -43 -21 -81 -16 -85 4 -4 44 -24 88 -44 84 -38 164 -61
252 -72 l52 -7 11 44 c18 65 43 108 91 156 68 67 119 87 219 87 151 -1 244
-56 315 -185 27 -50 30 -64 30 -145 0 -102 -19 -158 -73 -212 l-32 -32 54 -56
c29 -31 65 -80 80 -109 l27 -53 58 -6 c86 -7 142 -36 190 -96 48 -61 61 -102
61 -194 0 -79 -14 -116 -65 -175 -47 -54 -99 -81 -173 -88 -126 -14 -239 53
-278 162 l-18 51 -45 -4 c-93 -9 -215 -83 -380 -230 l-45 -40 22 -30 c32 -45
44 -81 51 -152 l6 -65 70 -28 c84 -35 255 -92 259 -87 1 2 11 24 20 49 29 73
82 129 154 163 55 26 72 29 125 25 172 -14 280 -130 281 -299 0 -63 -5 -86
-28 -132 -64 -132 -225 -191 -372 -136 -106 40 -170 130 -176 247 l-3 53 -164
55 c-90 30 -164 54 -165 52 -1 -2 -15 -36 -30 -76 -33 -86 -94 -155 -171 -192
-42 -21 -64 -25 -145 -25 -81 0 -103 4 -150 26 -105 49 -181 140 -201 240
l-11 54 -106 -7 c-59 -4 -136 -12 -172 -18 -66 -12 -176 -4 -149 10 8 4 43 10
79 14 196 18 342 35 346 39 3 2 9 29 14 60 14 89 47 152 106 206 49 45 140 91
179 91 31 0 75 134 75 226 0 29 -3 32 -41 38 -42 7 -86 41 -119 95 -15 23 -16
23 -55 6 -22 -10 -56 -20 -75 -24 -34 -6 -35 -8 -41 -63 -17 -152 -144 -288
-286 -305 -49 -5 -50 -6 -62 -50 -20 -78 -62 -151 -141 -246 -42 -51 -75 -98
-72 -105 2 -6 -1 -12 -7 -12 -6 0 -11 5 -11 11 0 6 -8 8 -17 5 -12 -4 -10 1 7
16 27 25 131 151 169 206 20 29 61 137 61 162 0 4 -21 11 -47 15 -123 17 -242
120 -284 243 l-24 69 -71 -12 c-39 -7 -98 -26 -131 -41 -47 -23 -58 -25 -49
-12 6 10 14 18 19 18 4 0 6 4 3 8 -6 10 187 65 212 60 14 -3 19 9 29 69 27
170 124 274 284 304 l67 12 6 45 c12 91 9 111 -21 118 -147 32 -234 76 -311
156 l-56 57 -50 -36 -51 -36 44 45 44 46 -21 29 c-49 70 -79 234 -62 350 13
93 35 142 108 238 143 190 334 262 541 204z m-5166 -69 c-6 -7 -23 23 -23 40
0 8 6 4 13 -10 8 -14 12 -27 10 -30z m-1290 20 c-3 -11 -7 -20 -9 -20 -2 0 -4
9 -4 20 0 11 4 20 9 20 5 0 7 -9 4 -20z m6718 3 c13 -16 12 -17 -3 -4 -10 7
-18 15 -18 17 0 8 8 3 21 -13z m-796 -33 c-16 -16 -31 -27 -34 -24 -5 5 48 54
58 54 3 0 -8 -13 -24 -30z m855 -15 c19 -19 32 -35 29 -35 -3 0 -20 16 -39 35
-19 19 -32 35 -29 35 3 0 20 -16 39 -35z m2380 -85 l0 -91 -62 3 -63 3 -3 82
-3 82 58 4 c32 2 61 4 66 5 4 1 7 -39 7 -88z m-12180 5 c0 -41 -1 -78 -2 -82
-2 -3 -31 -7 -65 -7 l-63 -1 0 77 0 77 38 4 c20 2 49 4 65 5 l27 2 0 -75z
m181 65 l39 0 0 -80 0 -80 -64 0 c-74 0 -76 2 -76 109 l0 64 31 -7 c17 -3 49
-6 70 -6z m262 -27 c-4 -21 -8 -59 -7 -84 l1 -46 -41 -1 c-23 -1 -53 -4 -68
-8 l-28 -6 0 91 0 91 75 0 76 0 -8 -37z m236 -20 c-4 -32 -8 -68 -8 -80 -1
-19 -9 -23 -56 -28 -31 -4 -57 -6 -59 -4 -2 2 -7 41 -11 87 l-7 82 74 0 74 0
-7 -57z m11709 -34 l-3 -74 -62 -3 -63 -3 0 80 0 80 58 3 c31 2 61 0 65 -3 4
-3 7 -39 5 -80z m216 60 c3 -17 6 -56 6 -85 l0 -54 -71 0 -72 0 7 46 c3 26 6
64 6 85 l0 39 59 0 c58 0 59 -1 65 -31z m216 -33 c0 -35 3 -71 6 -80 5 -13 -1
-16 -30 -16 l-36 0 0 73 c0 41 3 77 7 80 3 4 17 7 30 7 22 0 23 -4 23 -64z
m213 9 c4 -24 4 -58 1 -75 -6 -29 -8 -30 -65 -30 l-59 0 0 75 0 75 59 0 58 0
6 -45z m-4167 -22 c-14 -20 -26 -34 -26 -28 0 11 43 75 48 70 2 -2 -8 -21 -22
-42z m985 19 c-11 -16 -28 -35 -38 -43 -9 -8 -2 5 17 29 38 48 52 57 21 14z
m4899 -76 c0 -2 -7 -7 -16 -10 -8 -3 -12 -2 -9 4 6 10 25 14 25 6z m-11700
-16 c11 -7 5 -10 -22 -10 -21 0 -38 5 -38 10 0 13 40 13 60 0z m5765 -35 c-9
-20 -18 -35 -21 -32 -3 2 3 21 12 41 23 47 29 40 9 -9z m-4035 -5 c0 -5 -4
-10 -9 -10 -6 0 -13 5 -16 10 -3 6 1 10 9 10 9 0 16 -4 16 -10z m4025 -80 l30
-8 -35 0 c-19 0 -46 4 -60 8 -24 8 -24 8 5 8 17 0 44 -4 60 -8z m1525 -39
c-38 -26 -107 -64 -80 -44 14 10 38 30 55 45 16 14 34 24 39 20 5 -3 -1 -13
-14 -21z m-5886 -54 c14 -10 15 -18 7 -40 -12 -32 -26 -35 -41 -8 -25 47 -5
76 34 48z m-1884 -37 c0 -5 -5 -10 -11 -10 -5 0 -7 5 -4 10 3 6 8 10 11 10 2
0 4 -4 4 -10z m7607 4 c-3 -3 -12 -4 -19 -1 -8 3 -5 6 6 6 11 1 17 -2 13 -5z
m-7217 -18 c0 -11 -19 -15 -25 -6 -3 5 1 10 9 10 9 0 16 -2 16 -4z m2228 -14
c2 -7 -3 -12 -12 -12 -9 0 -16 7 -16 16 0 17 22 14 28 -4z m2612 15 c0 -2 -10
-12 -22 -23 l-23 -19 19 23 c18 21 26 27 26 19z m-5635 -27 c-3 -5 -10 -10
-16 -10 -5 0 -9 5 -9 10 0 6 7 10 16 10 8 0 12 -4 9 -10z m760 -4 c23 -23 -5
-36 -35 -16 -13 9 -13 11 0 20 19 12 19 12 35 -4z m-473 -7 c84 -18 151 -55
207 -114 82 -87 113 -181 100 -304 -11 -97 -45 -162 -121 -228 -71 -62 -135
-86 -229 -86 -90 0 -146 17 -205 62 -106 80 -159 187 -159 322 1 68 5 85 38
152 49 99 118 157 232 193 51 16 72 17 137 3z m10080 -16 c26 -24 22 -33 -15
-33 -36 0 -57 -15 -57 -41 0 -20 58 -74 90 -84 15 -5 19 -10 12 -17 -7 -7 -27
-5 -62 8 -49 18 -53 18 -65 1 -9 -13 -27 -17 -77 -17 l-66 0 -6 58 c-4 31 -9
69 -12 85 -4 16 -1 27 6 27 12 0 38 -55 43 -92 3 -16 12 -24 30 -26 14 -2 31
-10 37 -18 20 -23 44 -18 35 9 -20 64 -19 67 29 113 25 24 49 44 53 44 3 0 15
-7 25 -17z m82 1 c3 -9 6 -27 6 -40 0 -32 9 -30 43 6 43 45 63 39 31 -10 l-26
-39 36 -42 c56 -66 46 -79 -22 -29 -23 17 -44 30 -47 30 -2 0 -2 -13 2 -30 6
-31 -1 -36 -26 -21 -9 6 -13 35 -15 100 -1 87 5 110 18 75z m1706 12 c0 -3 -4
-8 -10 -11 -5 -3 -10 -1 -10 4 0 6 5 11 10 11 6 0 10 -2 10 -4z m-14646 -16
c40 -15 31 -29 -16 -27 -40 2 -43 0 -43 -23 0 -23 3 -25 38 -22 33 3 38 1 35
-15 -3 -14 -12 -18 -41 -17 -33 1 -38 -1 -35 -20 2 -17 11 -22 46 -24 28 -2
42 -8 42 -18 0 -10 -14 -14 -55 -14 -30 0 -58 -1 -62 -2 -9 -4 -3 140 7 168
10 26 40 31 84 14z m143 -10 c18 -10 43 -35 55 -55 20 -31 27 -35 52 -30 16 3
37 5 47 5 16 0 19 8 19 45 l0 45 59 0 c33 0 63 -5 67 -11 3 -6 9 -39 12 -74 4
-62 4 -63 -25 -78 -16 -9 -45 -18 -66 -22 l-37 -7 0 47 c0 41 -2 46 -15 35 -8
-7 -35 -14 -61 -15 -32 -2 -54 -10 -72 -28 -18 -17 -44 -27 -79 -32 l-53 -7 0
85 c0 47 3 92 6 101 8 22 52 20 91 -4z m707 14 c30 -11 17 -30 -20 -30 -38 0
-74 -30 -74 -61 0 -23 47 -63 75 -63 14 0 25 -4 25 -9 0 -18 -20 -22 -61 -11
-32 9 -43 18 -55 45 -20 50 -18 63 20 101 33 33 57 41 90 28z m71 -36 l8 -43
36 43 c20 23 40 42 44 42 15 0 5 -26 -23 -64 -32 -42 -30 -54 14 -95 29 -27
33 -41 12 -41 -8 0 -27 16 -42 35 -32 43 -43 44 -50 5 -6 -30 -23 -41 -26 -17
0 6 -2 49 -2 95 -1 57 2 82 10 82 7 0 15 -19 19 -42z m11261 32 c23 0 34 -5
34 -14 0 -11 -14 -16 -47 -18 -57 -4 -64 -22 -10 -26 40 -3 52 -21 15 -23 -17
-1 -19 -2 -5 -6 30 -8 18 -23 -18 -23 -19 0 -35 -4 -35 -10 0 -11 36 -21 65
-17 14 1 20 -4 20 -18 0 -18 -8 -20 -77 -23 -69 -3 -78 -1 -88 18 -14 27 -50
27 -50 0 0 -11 -7 -20 -15 -20 -12 0 -15 17 -15 91 l0 90 47 -3 c42 -3 50 -7
62 -33 12 -25 12 -32 -1 -55 -16 -29 -6 -80 17 -80 9 0 14 23 17 78 5 86 12
106 35 98 8 -3 30 -6 49 -6z m1092 -7 c-2 -10 -13 -19 -26 -21 -21 -3 -22 -8
-22 -78 0 -41 -4 -74 -9 -74 -11 0 -21 50 -21 106 0 42 -1 44 -29 44 -17 0
-32 4 -36 9 -10 17 29 30 88 31 50 0 58 -2 55 -17z m104 2 c39 -6 48 -19 48
-71 0 -24 -5 -34 -15 -34 -12 0 -10 -9 10 -40 31 -49 9 -58 -25 -10 -27 38
-60 40 -60 5 0 -16 -6 -25 -15 -25 -10 0 -15 10 -15 34 0 18 -3 61 -6 95 -7
62 -7 62 17 57 13 -3 40 -7 61 -11z m215 -2 c2 -6 -11 -14 -29 -18 -57 -11
-68 -16 -68 -29 0 -7 15 -17 32 -22 36 -11 52 -44 21 -44 -11 0 -28 -6 -39
-14 -18 -14 -18 -15 11 -21 53 -12 59 -15 48 -26 -6 -6 -32 -9 -59 -7 l-49 3
0 90 0 90 40 6 c55 9 88 6 92 -8z m130 0 c2 -6 -13 -14 -37 -18 -31 -5 -40
-11 -36 -22 3 -8 6 -18 6 -23 0 -5 12 -13 28 -18 l27 -10 -27 -10 c-40 -16
-44 -32 -9 -45 17 -6 31 -14 31 -18 0 -8 -78 -17 -88 -9 -4 3 -6 44 -4 92 3
80 5 87 25 91 37 8 80 3 84 -10z m-13862 -13 c17 -18 17 -25 5 -75 -12 -50
-12 -57 5 -75 18 -19 17 -20 -3 -20 -12 0 -22 4 -22 9 0 15 -50 62 -60 56 -6
-3 -10 -19 -10 -35 0 -22 -4 -28 -15 -24 -16 7 -19 45 -9 132 l7 52 42 0 c29
0 47 -6 60 -20z m636 -22 c2 -82 11 -102 47 -109 37 -8 44 0 77 91 12 32 26
55 35 55 16 0 33 -62 19 -71 -5 -3 -14 -14 -19 -25 -8 -15 -7 -19 3 -19 8 0
17 9 20 20 12 48 38 -1 36 -69 0 -26 0 -26 -11 -3 -14 28 -70 31 -90 4 -11
-14 -25 -16 -78 -14 l-66 4 3 46 c1 26 2 66 2 90 1 23 6 42 11 42 6 0 11 -19
11 -42z m719 32 c0 -6 -11 -15 -25 -20 -23 -9 -25 -14 -25 -80 0 -40 -4 -70
-10 -70 -6 0 -10 32 -10 75 0 73 -1 75 -25 75 -16 0 -25 6 -25 15 0 12 13 15
60 15 34 0 60 -4 60 -10z m124 -13 c12 -18 13 -30 4 -65 -8 -33 -8 -49 2 -68
7 -13 10 -27 7 -30 -9 -9 -37 15 -37 31 0 7 -11 15 -25 17 -21 4 -25 1 -25
-18 0 -13 -4 -24 -9 -24 -9 0 -21 80 -21 143 l0 37 45 0 c35 0 48 -5 59 -23z
m146 13 c0 -5 -15 -10 -34 -10 -19 0 -37 -4 -40 -9 -11 -18 6 -40 32 -43 38
-4 42 -36 5 -40 -42 -5 -43 -36 -2 -40 54 -5 46 -26 -11 -30 l-50 -3 0 93 0
92 50 0 c28 0 50 -4 50 -10z m138 -2 c-2 -6 -19 -17 -38 -23 -45 -15 -49 -33
-8 -37 43 -4 52 -35 11 -40 -33 -4 -38 -32 -6 -36 12 -2 27 -10 33 -18 11 -12
5 -14 -38 -14 l-50 0 -7 79 c-4 44 -4 85 0 90 9 16 108 14 103 -1z m4393 -26
c31 -28 43 -49 49 -83 10 -54 -1 -112 -27 -141 -23 -26 -86 -58 -113 -58 -31
0 -95 36 -119 66 -22 28 -28 88 -11 114 7 12 10 8 10 -15 0 -42 34 -92 75
-112 46 -22 102 -6 144 42 39 45 40 79 1 137 -40 60 -77 76 -130 55 -50 -19
-51 -14 -2 12 54 29 78 26 123 -17z m6315 30 c6 -4 19 -23 29 -42 9 -19 29
-48 44 -64 l26 -29 -25 6 c-17 4 -31 0 -45 -12 -12 -12 -43 -22 -79 -26 -59
-8 -59 -8 -53 16 4 13 7 54 7 92 l0 67 43 0 c23 0 47 -4 53 -8z m234 -73 c16
-77 8 -94 -46 -94 -32 0 -39 4 -45 25 -10 41 35 130 66 130 7 0 18 -27 25 -61z
m-5910 30 c0 -6 -4 -7 -10 -4 -5 3 -10 11 -10 16 0 6 5 7 10 4 6 -3 10 -11 10
-16z m-4262 -11 c-6 -18 -28 -21 -28 -4 0 9 7 16 16 16 9 0 14 -5 12 -12z
m2510 -12 c3 -12 -1 -17 -10 -14 -7 3 -15 13 -16 22 -3 12 1 17 10 14 7 -3 15
-13 16 -22z m1272 4 c0 -5 -4 -10 -10 -10 -5 0 -10 5 -10 10 0 6 5 10 10 10 6
0 10 -4 10 -10z m568 -8 c5 -17 -13 -15 -27 2 -10 12 -9 14 5 12 10 -2 20 -8
22 -14z m1273 -53 c-6 -16 -10 -18 -10 -7 -1 22 12 55 16 42 2 -6 -1 -22 -6
-35z m-5700 8 c-1 -12 -15 -9 -19 4 -3 6 1 10 8 8 6 -3 11 -8 11 -12z m4623
-28 c124 -98 15 -296 -124 -224 -40 21 -70 74 -70 125 0 36 6 48 39 81 33 34
45 39 83 39 31 0 54 -7 72 -21z m-314 -4 c10 -12 10 -19 2 -27 -15 -15 -48 14
-38 31 10 15 21 14 36 -4z m510 -30 c0 -8 -4 -15 -10 -15 -5 0 -10 7 -10 15 0
8 5 15 10 15 6 0 10 -7 10 -15z m3380 0 c0 -8 -4 -15 -10 -15 -5 0 -10 7 -10
15 0 8 5 15 10 15 6 0 10 -7 10 -15z m-8530 -20 c0 -8 -7 -15 -15 -15 -8 0
-15 7 -15 15 0 8 7 15 15 15 8 0 15 -7 15 -15z m9292 -57 c-9 -9 -12 -7 -12
12 0 19 3 21 12 12 9 -9 9 -15 0 -24z m3044 17 c-11 -8 -25 -15 -30 -15 -6 1
0 7 14 15 32 19 40 18 16 0z m-9873 -44 c46 -18 41 -90 -7 -113 -20 -9 -30 -8
-51 6 -32 21 -33 61 -3 93 24 26 27 27 61 14z m-273 -31 c0 -5 -4 -10 -10 -10
-5 0 -10 5 -10 10 0 6 5 10 10 10 6 0 10 -4 10 -10z m9224 -15 c-4 -8 -8 -15
-10 -15 -2 0 -4 7 -4 15 0 8 4 15 10 15 5 0 7 -7 4 -15z m-12404 -35 c0 -5 -2
-10 -4 -10 -3 0 -8 5 -11 10 -3 6 -1 10 4 10 6 0 11 -4 11 -10z m6067 -56 c2
-6 -6 -14 -19 -17 -27 -7 -32 -3 -24 18 6 18 37 17 43 -1z m160 -31 c-4 -17
-4 -17 -12 0 -4 9 -4 25 0 35 8 16 8 16 12 0 3 -10 3 -26 0 -35z m-1187 -13
c0 -5 -4 -12 -10 -15 -5 -3 -10 -4 -10 -1 0 2 -3 12 -6 20 -5 12 -2 15 10 10
9 -3 16 -10 16 -14z m-166 -49 c17 -19 14 -65 -4 -76 -18 -11 -60 18 -60 41 0
54 31 72 64 35z m3667 -51 l24 -19 -32 -1 c-26 0 -33 4 -33 20 0 25 11 25 41
0z m-4876 -20 c0 -36 -29 -33 -33 3 -3 23 0 28 15 25 12 -2 18 -12 18 -28z
m4675 -35 c0 -16 -34 -38 -44 -28 -3 3 -6 15 -6 25 0 13 7 18 25 18 15 0 25
-6 25 -15z m-4694 -23 c-4 -3 -14 2 -24 12 -16 18 -16 18 6 6 13 -6 21 -14 18
-18z m1524 4 c0 -8 -9 -24 -20 -37 -17 -21 -21 -22 -30 -9 -5 8 -9 21 -7 29 3
22 25 24 30 4 3 -11 5 -8 6 10 1 27 21 30 21 3z m718 13 c-2 -6 -8 -10 -13
-10 -5 0 -11 4 -13 10 -2 6 4 11 13 11 9 0 15 -5 13 -11z m-3868 -143 c0 -8
-7 -16 -15 -20 -17 -6 -18 -4 -9 18 8 20 24 21 24 2z m-3620 -16 c0 -5 -7 -10
-16 -10 -8 0 -12 5 -9 10 3 6 10 10 16 10 5 0 9 -4 9 -10z m8070 -40 c-41 -17
-79 -29 -84 -27 -12 4 122 56 144 56 8 0 -19 -13 -60 -29z m-2692 -4 c117 -63
146 -192 67 -305 -28 -42 -64 -65 -115 -76 -19 -4 -39 -13 -43 -19 -6 -8 -10
-8 -14 2 -2 6 -13 12 -24 12 -11 0 -36 7 -57 16 -104 43 -158 162 -118 259 19
43 86 109 128 123 41 14 139 7 176 -12z m-2898 -35 c0 -28 -19 -36 -35 -15
-10 14 -10 21 -2 26 21 14 37 8 37 -11z m1263 -1 c110 -41 185 -157 173 -270
-10 -101 -18 -121 -65 -172 -55 -60 -106 -88 -176 -95 -109 -11 -210 42 -267
143 -29 53 -31 54 -76 55 -26 1 -36 3 -22 6 67 10 65 8 66 75 3 113 60 203
157 249 74 35 133 38 210 9z m4797 10 c0 -5 -7 -10 -15 -10 -8 0 -15 5 -15 10
0 6 7 10 15 10 8 0 15 -4 15 -10z m-5747 -61 c21 -9 30 -9 42 1 10 8 15 9 15
1 0 -6 -5 -11 -12 -11 -6 0 11 -21 38 -47 73 -71 89 -110 89 -219 0 -83 -3
-96 -33 -153 l-33 -63 21 -36 22 -37 -33 32 -32 31 -49 -34 c-58 -40 -97 -48
-184 -41 -80 6 -143 42 -195 111 -44 58 -59 104 -59 183 0 135 74 239 203 285
57 20 152 19 200 -3z m1347 -4 c0 -7 -7 -15 -15 -19 -15 -5 -22 24 -9 37 9 9
24 -2 24 -18z m1580 -1 c0 -2 -7 -4 -15 -4 -8 0 -15 4 -15 10 0 5 7 7 15 4 8
-4 15 -8 15 -10z m-48 -6 c-17 -17 -15 -47 3 -55 9 -3 25 3 37 13 21 19 21 19
9 -3 -14 -27 -52 -31 -71 -8 -15 18 1 65 22 65 9 0 9 -3 0 -12z m4128 -8 c0
-5 -7 -10 -15 -10 -8 0 -15 5 -15 10 0 6 7 10 15 10 8 0 15 -4 15 -10z m2440
-47 c0 -5 -4 -14 -9 -21 -7 -11 -9 -11 -14 1 -3 8 -3 18 0 21 9 8 23 7 23 -1z
m-8000 -64 c0 -6 -4 -7 -10 -4 -5 3 -10 11 -10 16 0 6 5 7 10 4 6 -3 10 -11
10 -16z m1814 -55 c79 -40 156 -124 190 -208 45 -113 32 -260 -31 -348 -67
-94 -158 -151 -260 -164 -29 -3 -53 -10 -53 -15 0 -4 -12 -2 -27 6 -16 7 -54
21 -85 30 -32 9 -77 30 -100 48 -89 68 -157 225 -144 334 31 265 292 427 510
317z m2179 -14 c122 -38 231 -145 258 -253 25 -104 -8 -251 -77 -337 -114
-143 -323 -172 -487 -68 -142 90 -200 292 -132 460 34 84 106 156 185 185 30
11 62 23 70 26 33 12 121 6 183 -13z m-3903 -30 c0 -5 -7 -10 -15 -10 -8 0
-15 5 -15 10 0 6 7 10 15 10 8 0 15 -4 15 -10z m10915 -28 c6 -4 23 -33 39
-64 28 -60 78 -108 139 -133 35 -14 47 -31 47 -66 0 -46 -146 -3 -204 61 -48
53 -67 93 -73 156 -6 52 -5 54 18 54 13 0 29 -4 34 -8z m-8586 -57 c0 -5 -4
-3 -9 5 -5 8 -9 22 -9 30 0 16 17 -16 18 -35z m2007 24 c3 -6 2 -15 -2 -19
-12 -12 -38 5 -30 19 9 14 23 14 32 0z m-3726 -155 c0 -8 -4 -12 -10 -9 -5 3
-10 10 -10 16 0 5 5 9 10 9 6 0 10 -7 10 -16z m-1026 -77 c-7 -19 -20 -22 -29
-7 -9 15 16 43 27 32 5 -5 6 -16 2 -25z m4811 3 c-12 -4 -66 -10 -120 -13
l-100 -6 85 13 c104 16 165 19 135 6z m2995 -59 c0 -6 -4 -13 -10 -16 -5 -3
-10 1 -10 9 0 9 5 16 10 16 6 0 10 -4 10 -9z m-8185 -20 c3 -5 1 -12 -5 -16
-5 -3 -10 1 -10 9 0 18 6 21 15 7z m6819 3 c17 -7 22 -34 6 -34 -5 0 -10 5
-10 11 0 5 -4 7 -10 4 -5 -3 -10 1 -10 9 0 18 2 19 24 10z m-6474 -20 c145
-34 228 -121 261 -272 l11 -52 51 -2 52 -1 -50 -6 -50 -6 -7 -66 c-16 -163
-141 -306 -296 -340 l-52 -11 -2 -96 -2 -97 -3 97 c-4 108 3 98 -93 118 -122
24 -239 139 -271 264 -20 79 -8 192 28 267 54 116 119 172 236 204 68 18 108
18 187 -1z m8065 -4 c3 -5 -1 -10 -10 -10 -9 0 -13 5 -10 10 3 6 8 10 10 10 2
0 7 -4 10 -10z m-8847 -21 c90 -44 127 -165 80 -259 -27 -54 -109 -104 -166
-102 -97 4 -182 90 -182 186 0 146 139 237 268 175z m328 -24 c-19 -14 -36
-12 -36 6 0 5 7 9 15 9 8 0 15 5 15 12 0 9 3 9 13 -1 10 -10 8 -15 -7 -26z
m1014 -40 c0 -8 -4 -15 -9 -15 -13 0 -22 16 -14 24 11 11 23 6 23 -9z m7000 0
c0 -8 -4 -15 -10 -15 -5 0 -10 7 -10 15 0 8 5 15 10 15 6 0 10 -7 10 -15z
m-11370 -75 c0 -5 -4 -10 -10 -10 -5 0 -10 5 -10 10 0 6 5 10 10 10 6 0 10 -4
10 -10z m4230 -14 c0 -3 -4 -8 -10 -11 -5 -3 -10 -1 -10 4 0 6 5 11 10 11 6 0
10 -2 10 -4z m4830 -26 c0 -5 -4 -10 -10 -10 -5 0 -10 5 -10 10 0 6 5 10 10
10 6 0 10 -4 10 -10z m-4613 -6 c-3 -3 -12 -4 -19 -1 -8 3 -5 6 6 6 11 1 17
-2 13 -5z m1890 -26 c-3 -7 -5 -2 -5 12 0 14 2 19 5 13 2 -7 2 -19 0 -25z
m1123 29 c0 -2 -17 -19 -37 -38 l-38 -34 34 38 c33 34 41 42 41 34z m2431 -47
c-13 -11 -28 -20 -35 -20 -6 0 3 9 19 20 38 25 47 25 16 0z m-4856 -40 c37
-39 20 -39 -25 0 -23 19 -29 29 -19 30 8 0 28 -13 44 -30z m1556 13 c13 -16
12 -17 -3 -4 -10 7 -18 15 -18 17 0 8 8 3 21 -13z m60 -50 c13 -16 12 -17 -3
-4 -10 7 -18 15 -18 17 0 8 8 3 21 -13z m879 2 c0 -8 9 -15 20 -15 11 0 20 -4
20 -10 0 -14 -33 -13 -48 2 -15 15 -16 38 -2 38 6 0 10 -7 10 -15z m-8462 -18
c2 -10 -3 -17 -12 -17 -18 0 -29 16 -21 31 9 14 29 6 33 -14z m6570 4 c3 -8
-1 -12 -9 -9 -7 2 -15 10 -17 17 -3 8 1 12 9 9 7 -2 15 -10 17 -17z m3566 -53
c-10 -14 -36 -33 -58 -44 -22 -10 -46 -25 -53 -32 -7 -8 -33 -16 -56 -19 -54
-7 -41 6 44 41 36 15 81 40 100 55 39 34 49 33 23 -1z m1112 -3 c6 -5 9 -16 7
-22 -10 -26 18 -12 29 15 10 24 12 25 16 7 4 -20 -29 -55 -54 -55 -15 0 -34
30 -34 54 0 17 17 17 36 1z m-4236 -15 c0 -21 -15 -27 -25 -10 -7 12 2 30 16
30 5 0 9 -9 9 -20z m5107 -86 c-7 -7 -56 10 -77 27 -22 17 -20 17 27 -3 29
-12 52 -23 50 -24z m-9257 -4 c0 -5 -4 -10 -10 -10 -5 0 -10 5 -10 10 0 6 5
10 10 10 6 0 10 -4 10 -10z m5858 -28 c2 -18 -1 -32 -6 -32 -12 0 -22 24 -22
52 0 32 25 15 28 -20z m-44 13 c-4 -8 -8 -15 -10 -15 -2 0 -4 7 -4 15 0 8 4
15 10 15 5 0 7 -7 4 -15z m246 -15 c0 -13 -5 -18 -14 -14 -8 3 -12 12 -9 20 8
21 23 17 23 -6z m3285 0 c8 -13 -15 -13 -35 0 -12 8 -11 10 7 10 12 0 25 -4
28 -10z m-4585 -35 c0 -20 -5 -25 -24 -25 -14 0 -28 5 -31 10 -12 19 4 40 30
40 20 0 25 -5 25 -25z m3198 0 c116 -31 134 -41 202 -106 31 -30 82 -76 113
-102 31 -27 82 -81 112 -122 58 -78 126 -136 213 -179 l53 -27 50 45 c70 63
123 86 196 86 113 0 193 -44 244 -136 17 -30 35 -54 40 -54 25 0 156 78 202
119 36 33 36 101 -1 101 -13 0 -13 2 2 13 15 11 45 76 46 99 0 4 -8 9 -18 12
-9 3 -23 16 -31 28 -12 20 -10 19 18 -4 l31 -27 50 34 c67 45 112 59 175 52
108 -11 183 -78 205 -183 15 -73 0 -138 -47 -200 -89 -116 -270 -114 -359 4
-18 22 -34 47 -36 54 -3 8 -21 1 -59 -23 -30 -20 -82 -51 -116 -69 l-62 -34 1
-70 c2 -123 -58 -219 -167 -267 -91 -40 -220 -25 -299 36 -94 72 -121 180 -81
336 6 24 1 29 -67 67 -103 56 -143 91 -223 189 -38 48 -84 94 -101 102 -17 9
-39 28 -47 44 -9 15 -23 27 -32 27 -9 0 -14 4 -11 8 5 8 -185 72 -212 72 -6 0
-14 5 -17 10 -4 6 13 10 45 10 28 0 49 -4 46 -9 -3 -4 5 -6 18 -4 13 3 34 0
46 -7 12 -6 24 -9 27 -7 9 10 -61 40 -167 73 -125 39 -114 44 18 9z m1620 13
c-6 -18 -28 -21 -28 -4 0 9 7 16 16 16 9 0 14 -5 12 -12z m-1750 -15 c-10 -2
-26 -2 -35 0 -10 3 -2 5 17 5 19 0 27 -2 18 -5z m-3683 -33 c-3 -5 -10 -10
-16 -10 -5 0 -9 5 -9 10 0 6 7 10 16 10 8 0 12 -4 9 -10z m2270 -12 c-37 -19
-82 -30 -175 -42 -48 -7 -22 3 95 35 123 33 130 34 80 7z m2955 -18 c-16 -40
-23 -33 -9 9 6 18 14 30 17 27 2 -3 -1 -19 -8 -36z m-5160 26 c0 -2 -11 -6
-25 -8 -14 -3 -25 -1 -25 3 0 5 11 9 25 9 14 0 25 -2 25 -4z m129 -65 c36 -17
66 -29 69 -26 2 2 20 -2 39 -10 20 -8 43 -15 53 -15 36 0 220 -99 186 -100 -5
0 -35 8 -65 18 -31 11 -78 24 -106 31 -112 27 -125 32 -126 49 0 9 -3 12 -5 6
-7 -17 -50 -5 -74 21 -19 20 -26 22 -45 13 -19 -8 -29 -6 -54 11 -17 12 -31
27 -31 33 0 20 93 2 159 -31z m-3294 4 c47 -20 110 -78 141 -130 31 -54 35
-147 9 -225 -25 -76 -102 -153 -175 -174 -71 -21 -118 -20 -182 4 -150 56
-223 212 -169 364 24 68 48 97 110 134 89 52 182 61 266 27z m3416 6 c141 -29
294 -86 371 -138 38 -25 68 -49 68 -52 0 -4 -12 -8 -27 -9 -36 -3 -39 -8 -18
-32 33 -36 0 -21 -81 38 -43 32 -108 75 -144 97 -36 21 -67 42 -70 46 -3 3
-52 20 -110 37 -123 36 -119 40 11 13z m-2052 -98 c33 -27 61 -57 63 -68 5
-24 -41 -120 -77 -163 -35 -41 -135 -70 -135 -39 0 6 -20 25 -44 40 -125 79
-64 277 85 277 41 0 55 -6 108 -47z m-1997 22 c0 -5 -5 -11 -11 -13 -6 -2 -11
4 -11 13 0 9 5 15 11 13 6 -2 11 -8 11 -13z m5573 5 c-3 -5 -12 -10 -18 -10
-7 0 -6 4 3 10 19 12 23 12 15 0z m2184 -21 c47 -16 38 -24 -24 -21 -33 2 -74
-3 -105 -13 -56 -18 -135 -15 -260 11 l-65 13 85 -6 c124 -8 208 -5 270 11 70
18 62 18 99 5z m-6579 -20 c0 -6 -4 -7 -10 -4 -5 3 -10 11 -10 16 0 6 5 7 10
4 6 -3 10 -11 10 -16z m6117 15 c-3 -3 -12 -4 -19 -1 -8 3 -5 6 6 6 11 1 17
-2 13 -5z m-4869 -34 c-30 -9 -147 -14 -213 -9 -30 2 -23 4 30 9 108 10 216
10 183 0z m2997 0 c-3 -5 -14 -10 -23 -9 -14 0 -13 2 3 9 27 11 27 11 20 0z
m4110 -40 c3 -5 3 -15 -1 -21 -6 -11 -23 6 -24 24 0 10 18 9 25 -3z m-2115
-51 c0 -5 -4 -9 -10 -9 -5 0 -10 7 -10 16 0 8 5 12 10 9 6 -3 10 -10 10 -16z
m-1970 7 c0 -2 -7 -7 -16 -10 -8 -3 -12 -2 -9 4 6 10 25 14 25 6z m-2071 -32
c2 -2 -41 -4 -96 -4 -66 0 -124 -6 -173 -19 -76 -20 -105 -20 -54 0 63 24 161
37 239 32 44 -3 82 -7 84 -9z m2017 3 c-10 -7 -33 -23 -50 -36 -25 -19 -24
-17 6 13 21 20 43 36 50 35 7 0 5 -5 -6 -12z m1417 -1 c129 -25 134 -30 186
-186 19 -58 77 -127 133 -160 29 -16 56 -30 59 -30 4 0 14 19 24 43 83 208
360 282 554 148 280 -192 143 -654 -200 -679 -132 -9 -262 53 -331 159 l-33
51 -60 -5 c-33 -3 -119 -12 -192 -18 l-132 -13 6 -46 c12 -100 -41 -242 -120
-320 -46 -47 -150 -101 -195 -102 -21 -1 -32 -6 -32 -16 0 -10 -4 -12 -12 -5
-7 6 -38 13 -68 16 -141 14 -253 93 -318 226 -34 71 -37 82 -36 161 2 93 27
178 68 228 l23 27 -46 75 c-42 69 -52 78 -115 110 -61 30 -78 34 -143 34 -63
-1 -83 -6 -148 -38 -139 -69 -252 -202 -312 -367 -24 -66 -27 -88 -27 -209 -1
-113 3 -149 23 -220 35 -124 89 -235 158 -320 129 -162 270 -275 458 -366 61
-29 97 -51 80 -48 -45 9 -201 86 -278 138 -37 25 -71 46 -74 46 -4 0 -31 23
-60 52 -29 29 -53 47 -53 42 0 -14 92 -100 155 -144 28 -19 82 -57 120 -84 81
-56 307 -168 445 -219 52 -20 147 -49 210 -66 147 -39 669 -139 766 -148 l74
-6 50 47 c97 91 208 121 333 92 73 -17 165 -59 183 -84 10 -14 12 -13 18 6 18
57 149 132 231 132 86 0 376 -108 414 -154 20 -24 28 -20 57 27 99 160 292
216 532 153 67 -18 113 -25 133 -21 50 11 95 60 168 185 80 135 149 214 235
273 78 52 126 89 206 157 36 30 84 68 108 84 44 30 56 44 23 26 -11 -5 -26 -8
-33 -5 -8 3 -27 -6 -43 -19 -20 -17 -36 -24 -52 -20 -13 4 -33 -2 -50 -13 -57
-38 -198 -73 -299 -73 -68 0 -72 1 -78 25 -4 14 -2 33 3 43 5 9 23 60 41 112
45 133 99 220 199 320 107 106 208 170 326 206 80 24 106 27 230 27 110 0 157
-5 218 -21 231 -63 401 -225 497 -475 31 -80 49 -147 35 -135 -4 4 -18 2 -32
-3 -64 -24 -184 0 -231 47 -26 26 -47 31 -147 31 l-100 1 65 -22 c36 -12 79
-30 97 -39 49 -26 177 -138 274 -240 107 -113 224 -190 342 -225 69 -20 96
-23 172 -18 151 8 211 33 338 142 64 53 78 72 127 168 30 60 70 126 89 148 72
85 219 153 355 165 l69 6 -6 -183 c-4 -101 -7 -223 -7 -271 0 -107 -7 -112
-93 -66 -56 29 -72 32 -164 35 -55 2 -109 -1 -120 -6 -10 -6 -31 -8 -47 -5
-24 5 -27 9 -23 32 l5 26 -24 -30 c-14 -16 -41 -54 -60 -83 -49 -73 -74 -96
-137 -126 -77 -36 -142 -41 -288 -21 -232 31 -399 109 -544 253 -55 55 -62 59
-90 51 -16 -5 -83 -10 -147 -11 -81 -1 -119 -5 -122 -13 -5 -14 -56 -8 -56 6
0 5 -81 9 -180 9 -113 0 -180 -4 -180 -10 0 -5 -9 -10 -20 -10 -11 0 -20 5
-20 10 0 6 -14 10 -31 10 -34 0 -129 29 -127 39 3 26 -16 11 -119 -95 -65 -67
-165 -159 -223 -205 -58 -46 -133 -109 -167 -140 -108 -98 -109 -98 -408 -90
-142 4 -215 -26 -362 -146 -30 -23 -69 -45 -89 -49 -49 -9 -182 2 -199 16 -10
8 -72 10 -212 7 -190 -5 -200 -6 -257 -32 l-59 -28 -176 7 c-222 9 -347 20
-389 34 -18 6 -67 16 -110 22 -42 6 -153 27 -247 45 -93 19 -204 39 -245 45
-210 32 -468 119 -710 240 -138 69 -375 255 -433 340 -17 25 -52 71 -77 102
-118 147 -200 385 -200 582 0 229 151 495 330 583 129 64 213 67 356 15 77
-28 80 -30 110 -86 49 -92 54 -94 107 -53 71 54 128 72 228 71 77 -1 94 -4
160 -36 91 -43 149 -100 189 -185 l31 -66 137 7 c75 4 161 12 190 18 53 11 53
12 45 42 -4 17 -8 69 -7 116 l0 85 -70 35 c-83 42 -121 87 -161 190 -39 102
-70 134 -150 154 -70 17 -189 20 -300 7 -257 -32 -357 -42 -368 -38 -6 2 20 9
58 15 39 6 124 20 190 31 146 23 327 26 428 7z m-1583 1 c0 -2 -10 -12 -22
-23 l-23 -19 19 23 c18 21 26 27 26 19z m-3626 -22 c3 -8 1 -15 -3 -15 -5 0
-11 7 -15 15 -3 8 -1 15 3 15 5 0 11 -7 15 -15z m764 -33 c3 -9 -2 -13 -14
-10 -9 1 -19 9 -22 16 -3 9 2 13 14 10 9 -1 19 -9 22 -16z m-984 -13 c-3 -6
-3 -32 1 -58 l7 -49 46 -7 c58 -9 108 -34 146 -74 17 -17 36 -31 43 -31 8 0
12 -4 9 -9 -3 -5 1 -24 8 -43 19 -44 34 -160 25 -179 -5 -8 -20 -42 -35 -77
-64 -150 -236 -212 -381 -139 -63 32 -126 103 -147 164 -22 64 -20 168 3 219
39 85 124 153 218 172 l38 8 3 62 c2 37 7 60 13 57 5 -4 7 -11 3 -16z m-1234
-49 c0 -5 -5 -10 -11 -10 -5 0 -7 5 -4 10 3 6 8 10 11 10 2 0 4 -4 4 -10z
m6579 -35 c16 -8 31 -22 35 -31 10 -25 -19 -61 -60 -74 -30 -10 -39 -10 -52 3
-21 22 -19 72 3 97 22 24 36 25 74 5z m-3483 -13 c15 -10 34 -47 34 -68 0 -23
-29 -54 -51 -54 -39 0 -66 89 -37 118 13 13 37 15 54 4z m6265 -8 c12 -14 11
-16 -5 -13 -11 2 -21 10 -24 17 -5 17 13 15 29 -4z m-4700 -99 c22 -47 39 -90
37 -94 -2 -5 -22 33 -45 85 -23 52 -39 94 -37 94 3 0 23 -38 45 -85z m-2371
59 c66 -20 112 -49 170 -108 24 -25 51 -46 58 -46 10 0 13 -7 9 -21 -3 -11 1
-52 9 -90 36 -173 -55 -353 -221 -435 -51 -24 -71 -29 -130 -27 -38 0 -91 8
-117 16 l-48 15 -3 -177 -2 -176 -3 183 c-1 110 -6 182 -12 182 -20 0 -127
117 -150 165 -44 94 -28 269 33 360 53 79 110 122 204 154 71 25 132 26 203 5z
m1084 -19 c16 -12 17 -17 6 -30 -16 -19 -25 -19 -45 1 -12 12 -13 19 -4 30 14
17 19 17 43 -1z m2884 -9 c3 -13 -1 -17 -14 -14 -11 2 -20 11 -22 22 -3 13 1
17 14 14 11 -2 20 -11 22 -22z m4822 -1 c0 -8 -4 -15 -9 -15 -13 0 -22 16 -14
24 11 11 23 6 23 -9z m-11551 -62 c-19 -37 -24 -63 -22 -112 1 -68 -11 -67
-22 1 -8 43 8 100 38 140 30 41 33 26 6 -29z m5331 -34 c-19 -45 -29 -61 -26
-41 7 40 49 139 53 125 2 -5 -10 -43 -27 -84z m-887 40 c80 -27 119 -51 191
-119 77 -73 152 -185 182 -273 61 -180 35 -430 -67 -642 -68 -141 -167 -256
-347 -404 -56 -46 -102 -86 -102 -88 0 -3 8 1 18 8 15 13 16 12 3 -4 -44 -56
-353 -227 -491 -271 -175 -57 -788 -169 -1057 -193 -35 -3 -63 -10 -63 -14 0
-5 21 -19 47 -31 70 -34 69 -51 -3 -47 -46 2 -65 8 -87 28 -27 25 -29 25 -195
23 -92 -1 -210 1 -264 6 -119 11 -461 -2 -466 -17 -3 -10 -76 40 -94 64 -5 6
-11 5 -17 -5 -15 -22 -179 -26 -266 -6 -38 9 -104 23 -145 32 -41 9 -95 25
-119 36 -24 11 -52 17 -63 15 -12 -4 -18 0 -18 12 0 13 13 21 48 28 l47 11
-70 -1 c-90 0 -221 13 -207 22 6 4 -16 17 -49 30 -32 12 -59 27 -59 32 0 6 -4
8 -9 5 -5 -4 -11 -1 -13 6 -2 6 -10 8 -17 4 -9 -6 -9 -11 -1 -22 10 -11 3 -12
-42 -8 -109 10 -138 15 -138 24 0 5 -6 7 -14 4 -8 -3 -24 0 -36 6 -12 6 -49
13 -83 15 -34 1 -63 8 -65 14 -2 6 -10 11 -18 11 -8 0 -73 29 -144 65 -71 36
-140 65 -152 65 -13 0 -30 4 -37 9 -9 6 -22 6 -32 0 -14 -7 -27 -2 -56 23 -21
18 -41 37 -44 42 -4 5 -16 6 -27 4 -13 -4 -27 1 -38 13 -10 11 -30 19 -48 18
-99 -1 -126 3 -126 18 0 14 -3 14 -24 0 -22 -15 -25 -15 -41 3 -14 16 -31 20
-77 20 -36 0 -58 4 -58 11 0 8 -17 10 -50 7 -39 -4 -50 -2 -50 10 0 8 -6 12
-15 8 -23 -8 -45 4 -45 25 0 12 -7 19 -19 19 -26 0 -34 27 -12 39 10 6 20 8
23 6 2 -2 5 5 5 17 2 19 0 19 -30 -8 -62 -56 -78 -74 -72 -84 3 -6 -1 -7 -10
-4 -11 5 -15 0 -13 -17 3 -19 -2 -24 -22 -24 -14 -1 -50 -21 -82 -48 -32 -25
-67 -51 -78 -57 -40 -22 -148 -49 -253 -64 -219 -32 -288 -17 -422 89 -100 79
-122 94 -111 77 4 -7 1 -12 -9 -12 -11 0 -15 -5 -11 -15 3 -8 1 -15 -4 -15 -6
0 -10 -12 -11 -27 0 -16 -3 -23 -6 -16 -3 10 -7 10 -18 0 -7 -7 -10 -16 -7
-21 3 -5 0 -6 -6 -2 -6 3 -14 2 -17 -4 -4 -6 -15 0 -27 15 -20 25 -21 26 -41
8 -14 -12 -18 -13 -12 -3 8 13 7 13 -9 1 -12 -10 -20 -11 -24 -4 -4 6 -53 14
-109 17 -90 7 -105 5 -120 -10 -16 -16 -18 -15 -24 12 -4 16 -9 156 -12 312
l-6 282 37 0 c50 0 133 -23 199 -56 85 -41 182 -140 254 -256 34 -56 77 -117
95 -137 49 -55 189 -138 263 -157 91 -23 255 -16 334 15 87 34 245 158 392
306 71 73 141 138 153 144 45 24 14 21 -39 -3 -43 -20 -78 -26 -173 -32 l-119
-7 6 44 c4 24 20 87 36 139 70 222 208 368 416 442 115 40 281 50 385 24 266
-68 507 -308 590 -586 13 -41 33 -93 46 -115 12 -22 24 -60 26 -85 l3 -45 -40
1 c-22 1 -60 6 -85 12 -33 8 -52 7 -75 -3 l-30 -12 40 -8 c78 -16 122 -48 203
-150 31 -38 62 -76 70 -84 7 -7 35 -47 63 -87 51 -76 125 -141 192 -169 59
-25 165 -20 244 12 61 24 81 27 203 27 178 1 188 -4 331 -178 4 -4 25 5 46 22
53 41 124 65 197 66 54 1 68 -3 100 -28 l38 -28 66 30 c115 52 227 64 341 36
92 -23 139 -49 193 -107 l46 -50 89 11 c516 66 888 144 1113 233 113 45 369
190 370 210 0 3 -24 -1 -52 -10 -44 -12 -136 -16 -544 -19 l-491 -3 -23 -25
c-31 -32 -73 -32 -99 2 -26 33 -26 49 -1 74 30 30 73 26 104 -10 l25 -31 468
3 c598 5 572 -2 789 188 290 254 422 617 335 922 -66 229 -263 415 -451 426
-60 4 -83 -1 -165 -33 -18 -7 -19 -6 -5 8 44 47 173 60 273 26z m-522 -142
c44 -23 75 -34 89 -30 20 5 21 4 10 -14 -11 -17 -9 -23 13 -45 32 -32 60 -87
81 -157 41 -138 -1 -279 -113 -385 -60 -56 -113 -81 -196 -94 -167 -27 -312
48 -392 200 -26 49 -28 61 -28 171 l0 118 -30 8 -30 9 36 1 c33 1 37 5 59 51
26 55 105 137 161 165 67 36 112 45 193 41 67 -4 91 -10 147 -39z m-3296 13
c-3 -5 -10 -10 -16 -10 -5 0 -9 5 -9 10 0 6 7 10 16 10 8 0 12 -4 9 -10z
m10857 -82 c-12 -12 -35 -1 -27 12 3 5 13 6 21 3 10 -4 12 -9 6 -15z m-9209 5
c-13 -2 -33 -2 -45 0 -13 2 -3 4 22 4 25 0 35 -2 23 -4z m3922 -21 c0 -18 -20
-15 -23 4 -3 10 1 15 10 12 7 -3 13 -10 13 -16z m2230 9 c8 -14 -30 -32 -49
-25 -9 3 -13 10 -10 15 3 5 9 7 13 5 4 -3 13 -1 21 5 19 11 18 11 25 0z m2045
-17 c0 -3 -7 -12 -15 -20 -16 -17 -18 -14 -9 10 6 15 24 23 24 10z m-704 -31
c-10 -10 -19 5 -10 18 6 11 8 11 12 0 2 -7 1 -15 -2 -18z m-8901 -13 c17 -7
15 -9 -11 -7 -17 0 -37 -4 -45 -11 -8 -7 -36 -27 -64 -45 -62 -42 -94 -101
-95 -174 0 -50 23 -119 45 -135 6 -5 6 -8 -1 -8 -13 0 -37 26 -53 58 -7 12
-12 50 -12 83 -1 111 59 192 175 236 37 14 36 14 61 3z m22 -26 c-3 -3 -12 -4
-19 -1 -8 3 -5 6 6 6 11 1 17 -2 13 -5z m-467 -45 c0 -5 -7 -9 -15 -9 -15 0
-20 12 -9 23 8 8 24 -1 24 -14z m9930 11 c0 -5 -7 -10 -15 -10 -8 0 -15 5 -15
10 0 6 7 10 15 10 8 0 15 -4 15 -10z m-5829 -51 l22 -31 -25 -25 c-21 -21 -29
-23 -47 -14 -11 6 -26 21 -32 32 -9 17 -7 25 12 45 30 32 43 30 70 -7z m2896
-87 c3 -15 0 -29 -9 -39 -14 -13 -16 -10 -23 24 -4 21 -12 44 -18 51 -8 11 -5
11 17 1 14 -7 29 -23 33 -37z m3793 -36 c0 -8 -4 -18 -10 -21 -5 -3 -10 3 -10
14 0 12 5 21 10 21 6 0 10 -6 10 -14z m665 -35 c0 -16 -3 -27 -7 -24 -13 7 -7
53 6 53 1 0 1 -13 1 -29z m-7545 -40 c-10 -19 -13 -20 -25 -7 -18 18 -19 28
-3 44 20 20 43 -10 28 -37z m-5095 29 c-3 -5 -11 -10 -16 -10 -6 0 -7 5 -4 10
3 6 11 10 16 10 6 0 7 -4 4 -10z m8843 -72 c9 -9 12 -9 12 0 0 7 5 12 10 12
12 0 14 -37 2 -43 -7 -5 -52 27 -52 37 0 10 15 7 28 -6z m-7102 -54 c-22 -19
-44 -34 -49 -34 -6 0 9 18 34 39 24 22 46 37 49 34 3 -3 -13 -20 -34 -39z
m560 11 c4 -8 3 -26 0 -40 -11 -41 -76 -28 -76 15 0 36 64 57 76 25z m1284 5
c-20 -13 -33 -13 -25 0 3 6 14 10 23 10 15 0 15 -2 2 -10z m6980 -40 c0 -5
-10 -15 -22 -21 -23 -12 -23 -12 -4 10 21 23 26 26 26 11z m-7688 -27 c10 -9
18 -27 18 -39 0 -29 -42 -59 -67 -49 -16 7 -15 9 6 14 37 10 50 37 28 58 -17
17 -19 17 -43 -10 -16 -19 -24 -23 -24 -13 0 19 35 56 52 56 6 0 20 -7 30 -17z
m6376 -8 c-3 -3 -9 2 -12 12 -6 14 -5 15 5 6 7 -7 10 -15 7 -18z m-3940 -35
l23 -30 -32 -40 -33 -41 -33 35 c-18 19 -33 38 -33 42 0 15 54 64 69 63 9 0
26 -13 39 -29z m-6713 0 c-3 -5 -10 -10 -16 -10 -5 0 -9 5 -9 10 0 6 7 10 16
10 8 0 12 -4 9 -10z m5408 -67 c-12 -2 -34 -16 -49 -31 -15 -15 -24 -20 -19
-12 18 34 40 50 64 49 22 -2 23 -2 4 -6z m8217 -9 c0 -8 -4 -12 -10 -9 -5 3
-10 10 -10 16 0 5 5 9 10 9 6 0 10 -7 10 -16z m-10925 -5 c10 -15 -1 -23 -20
-15 -9 3 -13 10 -10 16 8 13 22 13 30 -1z m2644 -79 c11 -24 11 -24 -3 -6 -9
11 -16 24 -16 30 0 12 5 7 19 -24z m6581 22 c0 -13 -12 -22 -22 -16 -10 6 -1
24 13 24 5 0 9 -4 9 -8z m-248 -23 c68 -15 124 -43 139 -70 8 -15 8 -19 0 -15
-6 4 -11 3 -11 -2 0 -34 -235 -76 -380 -68 -99 5 -136 12 -158 29 -27 21 79
99 167 123 59 16 175 17 243 3z m-3252 -23 c0 -3 -4 -8 -10 -11 -5 -3 -10 -1
-10 4 0 6 5 11 10 11 6 0 10 -2 10 -4z m-3746 -28 c23 -32 20 -61 -9 -88 -24
-23 -25 -29 -27 -159 l-2 -136 -6 145 -5 145 28 17 c29 19 35 46 15 66 -28 28
-74 -5 -63 -45 4 -16 2 -22 -5 -18 -17 10 -11 54 10 75 26 26 45 25 64 -2z
m3756 2 c0 -5 -5 -10 -11 -10 -5 0 -7 5 -4 10 3 6 8 10 11 10 2 0 4 -4 4 -10z
m-4287 -24 c15 -22 15 -25 -2 -40 -23 -21 -38 -20 -51 4 -8 14 -7 25 2 40 17
26 32 25 51 -4z m9034 -12 c-3 -3 -12 -4 -19 -1 -8 3 -5 6 6 6 11 1 17 -2 13
-5z m56 -21 c-7 -2 -19 -2 -25 0 -7 3 -2 5 12 5 14 0 19 -2 13 -5z m-12470
-31 c24 -21 21 -58 -5 -76 -32 -23 -55 -20 -74 9 -21 31 -11 73 19 84 23 9 32
7 60 -17z m8787 2 c0 -8 -7 -14 -15 -14 -15 0 -21 21 -9 33 10 9 24 -2 24 -19z
m-3200 -3 c0 -6 -4 -12 -9 -15 -4 -3 -6 -18 -4 -33 l4 -28 -21 24 c-19 22 -20
25 -4 42 18 20 34 25 34 10z m-471 -182 c-37 -47 -56 -49 -94 -9 -16 17 -35
30 -42 30 -23 0 -14 17 34 63 l47 45 43 -45 44 -44 -32 -40z m-2942 45 c6 -16
-15 -64 -28 -64 -12 0 -19 30 -13 56 7 27 31 32 41 8z m-4294 -91 c-7 -2 -21
-2 -30 0 -10 3 -4 5 12 5 17 0 24 -2 18 -5z m4725 -16 c5 -24 -15 -21 -28 4
-10 18 -9 20 7 17 10 -2 19 -11 21 -21z m2738 -13 c-9 -8 -16 -11 -16 -4 0 15
24 40 28 29 2 -5 -4 -16 -12 -25z m4814 23 c0 -7 -9 -13 -20 -14 -20 -2 -26 8
-13 20 11 12 33 8 33 -6z m-12377 -4 c-13 -2 -33 -2 -45 0 -13 2 -3 4 22 4 25
0 35 -2 23 -4z m1767 -143 c0 -5 -5 -10 -11 -10 -5 0 -7 5 -4 10 3 6 8 10 11
10 2 0 4 -4 4 -10z m4364 -31 c14 -17 26 -35 26 -40 0 -5 108 -10 248 -12
l247 -2 -251 -3 c-237 -2 -252 -3 -269 -22 -24 -26 -60 -25 -79 2 -22 31 -20
51 9 82 31 33 38 33 69 -5z m-826 -10 c73 -25 164 -88 214 -150 39 -49 68
-101 67 -121 0 -8 -2 -9 -5 -2 -5 12 -51 7 -60 -7 -8 -13 -82 -11 -90 2 -4 7
-20 8 -41 4 -44 -8 -207 21 -256 45 -21 10 -45 16 -54 13 -8 -3 -18 -1 -22 6
-4 6 -34 16 -67 21 -135 24 -154 30 -154 54 0 28 28 55 102 95 107 60 258 77
366 40z m6775 6 c67 -14 188 -70 194 -91 4 -12 -6 -13 -89 -14 -69 -1 -448
-78 -488 -100 -10 -5 -28 -10 -39 -10 -21 0 -21 1 -6 38 22 52 90 118 154 149
89 44 163 52 274 28z m3952 5 c11 -17 -15 -40 -45 -40 -31 0 -62 27 -39 34 8
2 21 7 29 9 26 9 49 7 55 -3z m-5108 -22 c29 -27 29 -43 -2 -73 -35 -36 -62
-32 -82 11 l-18 36 28 24 c35 30 44 30 74 2z m567 -11 c8 -22 6 -32 -10 -54
-27 -36 -36 -38 -67 -9 -33 30 -34 49 -5 76 31 29 70 23 82 -13z m-8664 -93
c11 -13 9 -19 -12 -41 -16 -16 -31 -22 -38 -18 -10 6 -9 11 5 21 10 8 15 17
11 21 -4 4 -11 1 -17 -7 -8 -13 -10 -13 -18 -1 -5 8 -7 20 -4 28 7 18 58 17
73 -3z m7010 -30 c0 -3 -13 4 -30 16 -16 12 -30 24 -30 26 0 3 14 -4 30 -16
17 -12 30 -24 30 -26z m-5223 -246 c-3 -8 -6 -5 -6 6 -1 11 2 17 5 13 3 -3 4
-12 1 -19z m6081 -101 c52 -17 90 -33 85 -34 -10 -4 -223 65 -233 74 -9 8 52
-8 148 -40z m592 -46 c0 -11 -59 -36 -66 -28 -3 3 7 12 23 21 33 18 43 19 43
7z"/>
<path d="M6316 9738 c-22 -31 -20 -70 5 -102 23 -29 54 -33 87 -10 17 12 22
25 22 59 0 34 -5 47 -22 59 -33 23 -74 20 -92 -6z"/>
<path d="M10043 9850 c-50 -30 -67 -72 -53 -129 14 -54 41 -86 86 -101 66 -22
144 43 144 118 0 103 -95 163 -177 112z"/>
<path d="M5610 9806 l0 -53 48 -6 c60 -7 92 11 92 53 0 44 -23 60 -86 60 l-54
0 0 -54z"/>
<path d="M6940 9867 c-3 -3 -4 -27 -2 -53 l4 -46 55 6 c31 4 60 9 64 12 11 6
12 61 2 67 -13 8 -118 19 -123 14z"/>
<path d="M6940 9661 l0 -39 63 -4 c68 -4 87 3 87 36 0 36 -20 46 -87 46 l-63
0 0 -39z"/>
<path d="M5993 9756 c-15 -13 -26 -27 -23 -29 3 -3 30 -6 60 -8 60 -2 68 10
28 44 -26 22 -31 22 -65 -7z"/>
<path d="M7479 9641 l-24 -21 24 -20 c28 -24 40 -25 69 -4 15 10 22 24 20 37
-4 31 -56 35 -89 8z"/>
<path d="M9180 9760 c-11 -11 -20 -24 -20 -29 0 -11 36 -21 78 -21 25 0 32 4
32 19 0 20 -35 51 -57 51 -7 0 -22 -9 -33 -20z"/>
<path d="M9540 9773 c-16 -6 -40 -32 -40 -44 0 -4 25 -9 55 -11 61 -3 70 7 35
42 -21 21 -25 22 -50 13z"/>
<path d="M10477 9732 c-35 -36 -34 -57 2 -93 52 -51 111 -29 111 42 0 77 -62
104 -113 51z"/>
<path d="M10835 9755 c-36 -35 -32 -49 13 -41 20 3 45 6 54 6 20 0 14 28 -10
48 -22 17 -29 15 -57 -13z"/>
<path d="M11373 9663 c-7 -2 -13 -15 -13 -28 0 -29 32 -49 66 -41 33 9 35 61
2 70 -26 7 -38 7 -55 -1z"/>
<path d="M12067 9742 c-21 -23 -22 -54 -2 -91 35 -69 125 -46 125 32 0 64 -83
103 -123 59z"/>
<path d="M10089 9303 c-9 -27 -19 -55 -23 -64 -6 -14 1 -18 44 -20 30 -3 49 0
48 6 -17 56 -43 125 -48 125 -3 0 -13 -21 -21 -47z"/>
<path d="M7070 9315 l0 -45 55 0 c48 0 57 3 72 26 26 41 8 58 -66 62 l-61 3 0
-46z"/>
<path d="M7077 9233 c-4 -3 -7 -28 -7 -55 0 -48 0 -48 34 -48 92 0 132 31 108
85 -10 23 -17 25 -70 25 -32 0 -62 -3 -65 -7z"/>
<path d="M8651 9291 c-11 -27 -21 -54 -21 -60 0 -6 21 -11 49 -11 l50 0 -22
60 c-12 33 -25 60 -28 60 -4 0 -16 -22 -28 -49z"/>
<path d="M10917 9342 c-4 -5 -11 -29 -16 -54 -6 -24 -13 -51 -16 -59 -4 -11 5
-13 45 -11 27 2 50 5 50 6 0 30 -55 132 -63 118z"/>
<path d="M10402 9251 c2 -60 6 -113 10 -116 12 -13 106 16 132 40 20 19 26 34
26 67 0 73 -50 118 -131 118 l-41 0 4 -109z"/>
<path d="M8653 7409 c24 -14 21 -48 -8 -91 -14 -20 -25 -41 -25 -46 0 -6 -6
-12 -14 -15 -8 -3 -16 -15 -18 -27 -2 -14 -20 -31 -53 -48 -78 -42 -129 -75
-138 -89 -5 -9 -33 -13 -87 -13 l-79 0 -7 -36 c-12 -66 1 -195 26 -254 70
-165 188 -246 371 -257 229 -14 396 117 445 348 27 125 5 238 -65 347 -52 79
-137 147 -220 172 -68 21 -161 28 -128 9z"/>
<path d="M9986 7335 c4 -9 -8 -29 -31 -52 -30 -30 -45 -38 -79 -39 -34 -1
-117 -17 -186 -35 -20 -5 -28 -26 -29 -72 -2 -79 53 -148 144 -183 41 -15 55
-16 103 -6 75 16 122 49 156 112 39 72 40 159 2 224 -25 43 -51 66 -75 66 -6
0 -8 -7 -5 -15z"/>
<path d="M9557 7069 c-10 -6 -100 -27 -200 -47 l-182 -37 -7 -72 c-8 -76 -55
-214 -88 -256 l-20 -25 88 -84 c83 -80 216 -169 274 -183 22 -6 27 -2 42 38
35 92 127 164 259 202 67 19 70 23 86 144 17 131 19 125 -48 150 -45 16 -71
35 -110 76 -27 30 -51 65 -53 77 -4 26 -17 31 -41 17z m135 -351 c-6 -6 -15
-9 -18 -5 -4 3 -4 14 0 23 5 13 9 15 18 6 9 -9 9 -15 0 -24z m-220 -33 c0 -5
-5 -11 -11 -13 -6 -2 -11 4 -11 13 0 9 5 15 11 13 6 -2 11 -8 11 -13z"/>
<path d="M9800 6499 c0 -37 -68 -69 -150 -69 -48 0 -60 -3 -60 -16 0 -8 -4
-12 -10 -9 -6 4 -10 -6 -11 -22 0 -24 -1 -25 -8 -8 -7 17 -10 14 -20 -20 -18
-64 -14 -143 10 -192 42 -87 126 -129 243 -121 126 8 216 97 224 223 5 78 -10
126 -56 177 -60 66 -162 102 -162 57z"/>
<path d="M7448 7304 c18 -8 15 -24 -14 -82 -18 -36 -32 -52 -45 -52 -11 0 -31
-11 -45 -25 -15 -15 -36 -25 -54 -25 -16 0 -32 -4 -35 -10 -3 -5 -17 -10 -30
-10 -35 0 -43 -34 -24 -103 22 -79 114 -147 199 -147 44 0 135 32 165 58 65
56 77 244 20 318 -26 34 -77 66 -125 78 -14 3 -19 3 -12 0z"/>
<path d="M6430 7090 c0 -5 4 -10 10 -10 16 0 2 -64 -16 -75 -49 -28 -112 -111
-105 -138 1 -5 -4 -5 -10 -1 -8 5 -10 2 -6 -9 5 -13 0 -12 -29 5 -52 31 -143
22 -184 -17 -36 -35 -54 -85 -47 -136 5 -35 3 -37 -13 -26 -15 9 -23 7 -39 -7
-18 -16 -31 -18 -99 -12 -44 4 -92 4 -107 0 -26 -6 -27 -9 -21 -53 9 -68 58
-159 117 -219 125 -126 340 -166 495 -93 71 34 163 115 199 176 31 54 65 181
65 244 0 57 -34 184 -62 231 -39 65 -148 169 -148 140z"/>
<path d="M7504 6264 c-7 -29 -18 -40 -64 -64 -71 -36 -113 -48 -177 -52 -50
-3 -53 -5 -70 -43 -12 -27 -18 -63 -18 -115 1 -116 52 -198 159 -252 92 -47
231 -31 319 38 43 33 50 45 73 121 21 66 26 97 22 146 -9 110 -67 195 -163
238 -58 27 -70 24 -81 -17z"/>
<path d="M6378 5746 c-45 -41 -80 -56 -135 -56 -31 0 -83 -51 -83 -82 0 -20
-8 -26 -45 -36 -24 -6 -64 -9 -90 -6 -52 8 -56 -1 -30 -77 20 -59 65 -112 122
-146 65 -38 182 -45 246 -14 61 30 132 108 148 162 19 65 16 167 -5 209 -18
35 -65 90 -75 90 -3 -1 -27 -20 -53 -44z"/>
<path d="M10835 6910 c-8 -25 -77 -100 -92 -100 -6 0 -16 -7 -23 -15 -10 -12
-16 -13 -26 -4 -10 8 -14 8 -14 0 0 -7 -19 -11 -49 -11 -42 0 -49 -3 -55 -22
-32 -121 56 -233 191 -245 71 -6 130 21 177 80 27 34 31 48 34 116 3 64 0 85
-18 124 -33 71 -112 119 -125 77z"/>
<path d="M10693 5990 c-48 -10 -94 -32 -113 -54 -11 -14 -8 -16 24 -12 37 5
45 -1 24 -22 -14 -14 -68 -16 -68 -2 0 5 -7 7 -15 4 -8 -4 -12 -10 -9 -15 3
-6 -6 -19 -19 -30 -50 -39 -60 -176 -18 -257 58 -113 211 -172 323 -124 110
48 171 140 172 257 0 59 -4 78 -29 124 -55 100 -163 152 -272 131z"/>
<path d="M11908 6876 c63 -22 64 -70 3 -136 -17 -19 -31 -40 -31 -47 0 -7 -7
-13 -15 -13 -8 0 -23 -4 -33 -10 -20 -11 -112 -52 -166 -74 -21 -9 -49 -16
-61 -16 -35 0 -93 -28 -98 -47 -25 -88 -12 -196 34 -285 34 -66 122 -152 192
-186 169 -83 357 -60 483 60 98 92 144 201 144 337 0 91 -22 164 -73 243 -50
76 -92 112 -179 153 -68 31 -86 35 -155 34 -73 0 -76 -1 -45 -13z"/>
<path d="M13158 6236 c-33 -67 -82 -124 -113 -131 -16 -4 -41 -13 -55 -20 -20
-10 -65 -20 -109 -25 -2 0 -1 -29 1 -65 9 -102 59 -175 151 -215 140 -62 310
19 353 168 39 132 -52 290 -181 316 -27 5 -32 2 -47 -28z"/>
<path d="M12305 6086 c-97 -100 -172 -140 -296 -159 l-84 -13 -7 -61 c-3 -33
-8 -68 -10 -78 -2 -13 11 -21 70 -36 79 -20 145 -60 184 -111 37 -49 67 -111
74 -157 9 -58 28 -61 125 -19 25 11 26 14 21 73 -6 81 20 142 78 183 50 37 98
46 170 32 66 -12 97 -33 124 -85 21 -41 33 -145 22 -190 -15 -58 -113 -134
-173 -135 -21 0 -23 -4 -23 -62 0 -35 -9 -90 -19 -123 l-19 -60 31 -8 c102
-26 137 -41 185 -77 29 -22 57 -40 62 -40 5 0 44 29 87 65 120 101 209 156
297 186 l81 27 12 73 c18 104 66 173 150 215 l62 30 -25 44 c-37 65 -91 128
-124 145 -36 19 -40 19 -40 0 0 -20 -64 -51 -134 -64 -32 -6 -64 -15 -71 -21
-9 -8 -14 -5 -18 10 -3 13 -14 20 -29 20 -39 1 -110 39 -156 83 l-42 41 -65
-64 c-36 -35 -65 -61 -65 -56 0 4 26 37 57 73 l57 65 -23 43 c-13 24 -25 69
-28 103 l-6 60 -76 12 c-80 13 -163 41 -246 82 -85 43 -82 44 -170 -46z m125
-176 c0 -18 -3 -19 -20 -10 -11 6 -20 15 -20 20 0 6 9 10 20 10 13 0 20 -7 20
-20z m-359 -117 c13 -17 13 -17 -6 -3 -11 8 -22 16 -24 17 -2 2 0 3 6 3 6 0
17 -8 24 -17z m807 -545 c8 -10 11 -18 6 -18 -17 0 -34 23 -33 45 0 14 2 16 6
5 3 -8 12 -23 21 -32z"/>
<path d="M11820 5671 c-76 -25 -146 -88 -181 -165 -23 -52 -25 -168 -4 -220
24 -56 89 -121 147 -146 43 -18 65 -22 128 -18 84 5 118 19 174 74 133 130 95
370 -71 450 -61 29 -147 40 -193 25z"/>
<path d="M12524 5664 c-60 -29 -79 -59 -79 -122 0 -123 98 -182 208 -125 63
32 83 112 47 191 -30 66 -107 90 -176 56z"/>
<path d="M13624 5461 c9 -13 -95 -111 -117 -111 -10 0 -16 -4 -13 -9 5 -7 -52
-20 -109 -25 -11 -1 -19 -98 -11 -132 17 -66 106 -124 191 -124 128 0 214 96
203 226 -5 63 -43 124 -97 161 -35 24 -56 30 -47 14z"/>
<path d="M12607 4960 c7 -28 -14 -75 -40 -89 -12 -6 -36 -22 -53 -34 -44 -32
-179 -64 -199 -47 -22 18 -30 -10 -30 -105 1 -90 11 -118 71 -179 130 -134
347 -101 439 65 26 47 30 64 29 129 0 60 -5 85 -26 126 -30 57 -93 119 -144
140 -45 19 -53 18 -47 -6z"/>
<path d="M13444 4716 c-45 -20 -105 -76 -120 -113 -17 -39 -18 -150 -3 -190
17 -46 78 -101 132 -119 161 -53 334 109 287 269 -29 102 -113 167 -211 167
-30 -1 -68 -7 -85 -14z"/>
<path d="M5066 6315 c10 -26 -16 -72 -52 -91 -19 -10 -34 -24 -34 -31 0 -7
-11 -13 -24 -13 -28 0 -76 -42 -76 -67 0 -11 -3 -14 -8 -7 -10 15 -81 17 -115
3 -23 -10 -30 -10 -37 0 -21 35 -29 -108 -8 -156 13 -31 64 -100 88 -121 38
-33 117 -62 167 -62 117 0 243 83 272 179 33 113 22 200 -35 283 -41 58 -155
127 -138 83z"/>
<path d="M2327 6383 c-11 -10 -8 -111 3 -118 17 -11 79 15 85 35 8 26 -10 57
-45 75 -33 17 -34 17 -43 8z"/>
<path d="M2580 6375 c0 -16 52 -21 84 -9 32 12 15 24 -34 24 -38 0 -50 -4 -50
-15z"/>
<path d="M2600 6285 c0 -16 20 -19 58 -9 36 10 25 24 -18 24 -29 0 -40 -4 -40
-15z"/>
<path d="M14232 6352 c2 -20 9 -28 26 -30 19 -3 23 0 20 19 -2 12 -13 26 -26
30 -21 8 -23 6 -20 -19z"/>
<path d="M15575 6353 c8 -33 4 -29 38 -37 30 -7 32 -4 16 27 -24 45 -65 52
-54 10z"/>
<path d="M2030 6351 c0 -39 12 -45 41 -23 28 24 20 52 -16 52 -21 0 -25 -5
-25 -29z"/>
<path d="M3510 6356 c0 -15 8 -30 19 -36 29 -15 33 -13 29 23 -2 24 -8 33 -25
35 -19 3 -23 -1 -23 -22z"/>
<path d="M14500 6325 c0 -49 2 -55 21 -55 33 0 59 19 59 43 0 34 -28 67 -56
67 -23 0 -24 -3 -24 -55z"/>
<path d="M14760 6314 c-14 -36 -12 -54 4 -54 21 0 30 19 16 35 -7 8 -10 22 -6
30 3 8 3 15 0 15 -2 0 -9 -12 -14 -26z"/>
<path d="M9058 6238 c-47 -39 -53 -78 -23 -151 9 -23 56 -47 90 -47 17 0 38
11 56 31 24 25 29 40 29 79 0 42 -4 52 -31 74 -17 14 -36 26 -42 26 -7 0 -21
3 -32 5 -12 4 -31 -3 -47 -17z"/>
<path d="M6650 6101 c-12 -23 -5 -47 17 -55 21 -9 33 2 33 29 0 34 -35 52 -50
26z"/>
<path d="M8070 5870 c0 -11 2 -20 4 -20 2 0 11 -3 20 -6 24 -9 20 23 -4 36
-17 9 -20 8 -20 -10z"/>
<path d="M6880 5538 c-45 -13 -57 -23 -92 -77 -54 -85 -26 -171 69 -213 102
-45 214 31 215 146 1 57 -24 101 -75 131 -47 27 -63 29 -117 13z"/>
<path d="M4090 5540 c0 -5 5 -10 11 -10 5 0 7 5 4 10 -3 6 -8 10 -11 10 -2 0
-4 -4 -4 -10z"/>
<path d="M5390 5435 c0 -8 -17 -31 -37 -52 -30 -30 -44 -37 -69 -35 -22 2 -40
-4 -60 -22 -22 -17 -34 -22 -46 -15 -10 6 -27 5 -45 -2 -15 -6 -30 -9 -33 -7
-8 5 -12 -63 -6 -97 13 -68 111 -135 198 -135 66 0 149 44 174 91 25 50 30
131 9 184 -26 70 -85 132 -85 90z"/>
<path d="M4377 5374 c-16 -19 -33 -34 -39 -34 -5 0 -16 -7 -24 -15 -14 -13
-13 -15 3 -16 10 0 3 -5 -14 -10 -18 -5 -40 -21 -49 -34 -13 -20 -19 -23 -30
-14 -22 18 -92 28 -103 15 -20 -24 -23 -85 -7 -139 36 -125 176 -182 301 -123
59 27 77 46 104 106 26 57 27 141 2 195 -18 42 -82 106 -104 104 -7 0 -25 -16
-40 -35z"/>
<path d="M7679 5204 c-1 -5 0 -19 1 -32 2 -33 -82 -116 -109 -107 -36 11 -91
-21 -109 -64 -19 -45 -56 -61 -141 -61 -47 0 -51 -2 -51 -24 0 -41 29 -108 66
-153 99 -120 284 -131 406 -25 57 50 83 121 82 222 0 67 -4 94 -21 125 -26 49
-121 140 -124 119z"/>
<path d="M9715 5216 c-156 -53 -225 -136 -225 -272 0 -140 73 -243 200 -284
85 -27 138 -23 212 17 132 72 195 248 134 374 -61 128 -209 203 -321 165z m3
-73 c5 -53 -55 -87 -120 -67 -25 7 -23 51 2 64 11 6 17 16 14 22 -4 6 -3 8 4
4 6 -3 14 -2 17 4 4 6 23 10 43 8 33 -3 37 -6 40 -35z"/>
<path d="M5505 4769 c-40 -38 -100 -89 -134 -114 -22 -17 -38 -36 -36 -43 9
-25 -6 -32 -35 -17 -58 30 -140 8 -158 -43 -14 -43 2 -144 33 -201 43 -79 133
-136 233 -147 97 -12 228 68 275 168 62 132 31 302 -68 369 -44 30 -94 42
-110 28z m-125 -143 c0 -2 -7 -6 -15 -10 -8 -3 -15 -1 -15 4 0 6 7 10 15 10 8
0 15 -2 15 -4z"/>
<path d="M4662 4774 c-12 -8 -20 -19 -17 -24 3 -4 -2 -11 -10 -14 -9 -3 -25
-21 -36 -41 -12 -19 -28 -35 -36 -35 -8 0 -11 4 -8 10 4 6 -1 7 -10 3 -23 -8
-12 -61 20 -92 18 -18 38 -25 79 -29 53 -4 57 -3 91 31 32 32 35 40 35 90 0
50 -3 58 -35 86 -41 36 -43 36 -73 15z"/>
<path d="M13220 4063 c-36 -14 -72 -48 -91 -86 -26 -49 -21 -136 9 -176 53
-72 149 -93 226 -48 143 81 83 319 -79 316 -27 0 -57 -3 -65 -6z"/>
<path d="M12534 3806 c-18 -8 -35 -19 -38 -25 -8 -12 -106 -61 -123 -61 -17 0
-35 -52 -40 -115 -6 -80 23 -138 88 -178 113 -69 257 -28 310 88 26 56 24 129
-5 190 -27 58 -47 78 -99 100 -44 18 -53 18 -93 1z"/>
<path d="M7970 4170 c0 -5 10 -10 23 -10 18 0 19 2 7 10 -19 13 -30 13 -30 0z"/>
<path d="M4553 4143 c-8 -3 -11 -14 -7 -29 3 -13 1 -30 -4 -37 -6 -7 -13 -25
-16 -40 -2 -15 -15 -40 -27 -55 -18 -23 -20 -24 -15 -5 6 20 3 21 -49 25 -52
3 -56 1 -63 -22 -3 -14 -6 -46 -5 -72 4 -166 227 -238 353 -115 44 43 60 84
60 156 0 74 -9 97 -51 140 -52 51 -127 74 -176 54z"/>
<path d="M5879 4105 c-68 -37 -60 -161 13 -205 47 -29 89 -26 121 8 33 34 70
126 62 153 -16 50 -135 77 -196 44z"/>
<path d="M11585 3750 c18 -7 19 -8 3 -15 -10 -4 -16 -11 -13 -15 11 -19 -32
-69 -80 -93 -68 -34 -93 -39 -105 -19 -9 16 -9 16 -10 1 0 -20 -27 -33 -33
-16 -11 30 -32 -55 -32 -133 0 -95 11 -124 72 -191 42 -47 87 -71 160 -89 44
-10 61 -9 109 5 107 31 177 94 214 193 40 106 15 208 -75 297 -55 55 -120 85
-183 84 -35 0 -42 -3 -27 -9z"/>
<path d="M10389 3486 c-211 -75 -278 -339 -129 -509 58 -65 124 -92 230 -92
73 0 92 4 136 27 82 43 142 124 164 221 29 130 -70 308 -195 350 -57 20 -155
21 -206 3z"/>
<path d="M13990 2600 c0 -5 5 -10 11 -10 5 0 7 5 4 10 -3 6 -8 10 -11 10 -2 0
-4 -4 -4 -10z"/>
<path d="M5440 3669 c0 -34 -6 -47 -35 -73 -35 -32 -35 -32 -101 -23 -75 11
-79 8 -90 -59 -9 -60 11 -120 57 -169 148 -160 406 -29 373 188 -16 102 -90
177 -174 177 -29 0 -30 -2 -30 -41z"/>
<path d="M10724 3786 c-9 -24 0 -51 18 -54 19 -4 35 38 23 57 -9 16 -35 13
-41 -3z"/>
<path d="M7247 3793 c-12 -11 -7 -59 7 -79 30 -39 71 19 46 65 -10 20 -40 28
-53 14z"/>
<path d="M6473 3647 c-4 -12 -6 -25 -5 -29 1 -4 -17 -20 -39 -35 -22 -15 -63
-45 -91 -67 -39 -30 -59 -38 -87 -37 -20 0 -56 2 -81 3 -39 1 -47 -2 -57 -23
-7 -13 -13 -47 -13 -76 0 -128 81 -235 204 -268 134 -36 255 20 334 154 24 41
27 56 27 136 0 80 -3 95 -28 137 -35 60 -69 92 -118 111 -37 15 -39 14 -46 -6z"/>
<path d="M3770 2435 c41 -47 84 -84 98 -85 6 0 12 -4 12 -10 0 -5 6 -10 14
-10 7 0 19 -7 26 -16 8 -8 23 -20 34 -26 36 -19 0 17 -58 59 -28 20 -73 55
-101 77 -39 31 -44 34 -25 11z"/>
<path d="M2003 2183 c9 -10 35 -28 59 -39 111 -56 136 -64 189 -63 l54 1 -70
18 c-39 10 -110 37 -159 59 -56 26 -83 35 -73 24z"/>
<path d="M6826 2155 c-21 -22 -20 -52 3 -64 28 -15 54 8 49 44 -4 35 -28 44
-52 20z"/>
<path d="M2318 2083 c7 -3 16 -2 19 1 4 3 -2 6 -13 5 -11 0 -14 -3 -6 -6z"/>
<path d="M4873 1823 c9 -2 25 -2 35 0 9 3 1 5 -18 5 -19 0 -27 -2 -17 -5z"/>
<path d="M7443 3481 c-43 -11 -123 -58 -151 -89 -12 -14 -25 -37 -28 -51 -12
-54 -28 -83 -52 -92 -24 -9 -24 -11 -20 -97 3 -74 9 -96 32 -136 54 -93 164
-143 287 -133 80 7 133 31 182 86 67 74 82 115 82 216 -1 77 -5 97 -27 140
-14 28 -41 64 -60 82 -62 59 -172 92 -245 74z"/>
<path d="M5217 2993 c-11 -10 -8 -41 5 -49 14 -9 38 23 31 42 -5 15 -25 19
-36 7z"/>
<path d="M2276 2574 c-6 -17 9 -54 23 -54 11 0 23 48 16 60 -9 15 -32 12 -39
-6z"/>
<path d="M6180 2161 c-14 -27 -13 -46 4 -60 31 -26 67 20 46 59 -14 25 -36 26
-50 1z"/>
<path d="M10976 2141 c-10 -11 -16 -28 -14 -38 5 -25 41 -28 62 -4 14 15 15
23 6 40 -13 26 -32 27 -54 2z"/>
<path d="M11537 2163 c-13 -13 -7 -71 9 -84 14 -11 19 -10 35 10 24 29 24 36
-1 61 -21 21 -32 24 -43 13z"/>
</g>
</svg>
